<svg width="252" height="53" fill="none" xmlns="http://www.w3.org/2000/svg"><g clip-path="url(#clip0_1_1290)" fill="#fff"><path d="M55.891 26.41h-1.148l1.936-5.333c-2.055 2.258-4.214 3.642-5.044 4.167l-.458-1.02c2.514-1.442 4.336-3.016 5.619-4.43h-3.4l.407-1.121h3.749l.825-2.273h-1.846c-.776.976-1.338 1.486-1.718 1.85l-.846-.67c1.029-.874 1.999-1.865 3.367-4.313l1.148.16c-.215.394-.493.918-1.122 1.85h1.424l.873-2.403h1.148l-.873 2.404h3.197l-.407 1.121h-3.197l-.825 2.274h3.546l-.407 1.122h-3.14c.264 2.156.908 3.263 1.777 4.313l-1.112 1.224c-.918-1.195-1.425-2.681-1.505-4.343l-1.968 5.42zm-3.703-4.852c-.35-1.035-.467-1.516-.473-2.099l-2.523 6.95h-1.134l2.544-7.008a23.127 23.127 0 01-3.127 3.73l-.072-1.442c1.503-1.297 3.024-3.206 4.034-4.867h-2.02l.412-1.136h2.122l1.021-2.813h1.133l-1.02 2.813h1.802l-.413 1.136h-1.802l-.349.962c.037.7.512 1.952 1.011 2.74l-1.146 1.034zm17.399 3.045c-2.594.54-5.494.962-8.012 1.253l.26-1.195c.616-.058 1.413-.13 3.34-.393l1.66-4.575h-2.877l.412-1.137h6.918l-.413 1.137h-2.819l-1.597 4.4a77.772 77.772 0 003.486-.597l-.358 1.107zm5.375-11.686c-.216.598-.407 1.122-.843 2.405h4.606l-.417 1.15h-4.564c-.546 1.705-1.16 3.716-1.207 5.93-.029 1.08.342 2.58.923 2.58.407 0 1.102-1.034 1.682-2.39l.934.51c-.516 1.02-.97 1.909-1.618 2.536-.705.699-1.099.743-1.36.743-1.599 0-1.927-2.42-1.878-3.556.051-1.5.312-3.06.796-4.633.457-1.5.501-1.661.522-1.72h-7.673l.418-1.15h7.63c.224-.7.531-1.545.829-2.404h1.22zm2.347 2.303c-.383-.467-.805-.904-1.737-1.501l.986-.874c.865.539 1.205.845 1.806 1.471l-1.055.903zM47.477 31.495c2.158-1.18 3.462-2.171 4.509-3.133.302.729.77 1.72 2.263 3.133h-6.772zm3.11 5.202c.624 1.005.797 1.37 1.187 2.258-.592.03-3.515.233-4.17.277-.238.015-1.644.044-2.57.073a68.141 68.141 0 003.195-3.716h7.6l.402-1.107H43.24l-.402 1.107h3.982a41.632 41.632 0 01-3.118 3.745c-.456.014-1.76.044-2.035.044l-.318 1.194c4.131-.13 4.792-.189 10.812-.64.16.48.229.771.31 1.15l1.32-.714c-.502-1.82-1.051-2.87-2.005-4.327l-1.197.656zm4.01-4.882c.936.787 1.594 1.137 1.994 1.356l1.062-1.166c-2.2-.904-3.872-2.623-4.652-4.677h-1.294c-1.163 1.122-2.474 2.01-3.681 2.695-1.982 1.137-3.427 1.632-4.357 1.953l.173 1.166c.617-.22 1.66-.613 3.079-1.356l-.296.816h7.687l.286-.787zm4.811 9.18h-1.177l2.152-5.93c-1.222.845-2.049 1.282-2.537 1.544l-.065-1.18c2.952-1.486 4.99-3.38 5.888-4.532H59.6l.402-1.107h2.296l.862-2.375h1.178l-.863 2.375h1.89l-.402 1.108c-.373.466-1.06 1.354-2.526 2.593.433.889.774 1.311 1.385 1.909l-1.04 1.063c-.548-.611-.953-1.456-1.094-1.748l-2.28 6.28zm11.367-13.58l-1.528 4.21h3.197l-.434 1.196h-3.197l-2.343 6.455h3.531l-.433 1.194h-8.473l.434-1.194h3.72l2.343-6.455h-3.037l.434-1.195h3.037l1.529-4.211h1.22zm-42.591 1.439c-22.269 3.453-14.531-6.928-3.441-16.528C35.832 2.726 41.419 0 41.419 0S8.33 30 28.184 28.854z"/><path d="M24.474 24.147c22.269-3.454 14.531 6.929 3.442 16.527C16.826 50.274 11.24 53 11.24 53s33.087-30 13.234-28.853zm-7.222-10.94c0 4.777-3.862 8.65-8.626 8.65-4.764 0-8.626-3.873-8.626-8.65C0 8.431 3.862 4.56 8.626 4.56c4.764 0 8.626 3.872 8.626 8.648z"/><path d="M.513 13.208c0 4.485 3.64 8.135 8.114 8.135 4.473 0 8.112-3.65 8.112-8.135 0-4.485-3.639-8.135-8.112-8.135-4.474 0-8.114 3.65-8.114 8.135z"/><path d="M4.313 13.207a4.324 4.324 0 004.314 4.326 4.324 4.324 0 004.313-4.326 4.324 4.324 0 00-4.313-4.323 4.324 4.324 0 00-4.314 4.323z"/><path d="M12.427 13.208a3.805 3.805 0 01-3.8 3.81c-2.1 0-3.8-1.705-3.8-3.81a3.805 3.805 0 013.8-3.81c2.099 0 3.8 1.706 3.8 3.81zm205.164 10.457a2103.34 2103.34 0 01-1.135 3.155l-.259.72-.819 2.275h34.41c.096-.273.432-1.202.817-2.275l.259-.72.239-.665c.366-1.02.714-1.981.897-2.49h-34.409zm-67.729-1.051a38.95 38.95 0 01-2.019 3.54c-.144.223-.282.442-.436.666-.166.24-.346.48-.525.72-1.81 2.435-4.303 4.851-7.751 6.087l-1.304.467 2.273-6.554.25-.72.23-.665c2.213-6.377 5.004-14.423 5.341-15.39h-6.597l-5.315 15.39-.23.665-.25.72c-2.514 7.282-4.951 14.342-5.225 15.129 1.96-.033 5.434-.265 9.687-1.895 8.782-3.34 13.456-9.327 15.871-13.234.155-.248.301-.49.436-.72a54.158 54.158 0 00.733-1.284l-5.169-2.922zm-19.83 4.206c.103-.224.198-.443.296-.665 1.303-2.94 2.228-5.583 2.857-7.396l2.748-8.034h-6.599l-3.197 9.332c-.629 1.815-1.287 3.689-2.473 6.098-.109.219-.216.437-.333.665-.119.231-.254.48-.382.72a51.382 51.382 0 01-1.052 1.89c-2.673 4.561-5.128 6.589-6.882 7.902.517.772 2.784 4.155 3.382 5.05 5.244-3.82 8.856-9.654 11.3-14.842.114-.24.226-.482.335-.72zm30.034-16.103c-.222.648-1.705 4.922-2.151 6.208h24.284l-.519.97c-1.628 3.055-3.744 5.813-6.315 8.26-.235.223-.467.448-.71.665-.27.244-.549.483-.83.72-5.049 4.269-11.664 7.454-19.835 9.362.149.857.824 4.75 1.004 5.78 12.037-2.303 20.402-8.61 24.384-12.18a36.618 36.618 0 002.945-2.962c.212-.238.425-.476.632-.72.184-.215.357-.445.537-.665 3.504-4.291 6.37-9.525 8.555-15.438h-31.981zm49.588 7.722l-.289.219c-4.21 3.207-7.873 5.598-11.594 7.497a51.13 51.13 0 01-2.924 1.385c-2.953 1.295-6.038 2.338-9.546 3.268l-.369.097 1.029 5.688.767-.222c1.464-.427 3.912-1.14 8.032-2.855 0 0 .211-.09.456-.191l-3.257 9.395h6.884s4.534-13.07 4.633-13.36l.067-.037a65.06 65.06 0 002.958-1.783 110.563 110.563 0 002.127-1.386 215.444 215.444 0 004.859-3.348l.417-.296-4.25-4.072zM99.418 16.726l2.086-6.013h-6.761l-2.087 6.02s-8.059.008-8.848.01c-.23.633-1.726 4.781-2.19 6.07h8.93l-1.159 3.342-.23.665-.25.72-2.792 8.054c-1.174 3.385-.66 4.563-.172 5.155 1.5 1.795 4.883 1.887 5.545 1.887h17.513l2.213-6.094H96.035c-1.558 0-2.336-.06-2.733-.611-.366-.507-.161-1.096.055-1.719l2.312-6.672.25-.72.23-.665 1.16-3.343h11.925l-.907 1.078c-.712.844-1.607 1.598-2.569 2.265-.336.232-.679.454-1.027.665-.423.257-.852.496-1.277.72a32.471 32.471 0 01-3.916 1.73l2.189 4.357c4.293-1.712 7.552-3.829 10.077-6.087.267-.239.533-.477.784-.72.229-.22.433-.443.648-.665 3.106-3.203 4.9-6.58 6.065-9.45l-19.883.021z"/></g><defs><clipPath id="clip0_1_1290"><path fill="#fff" d="M0 0h252v53H0z"/></clipPath></defs></svg>