<svg width="427" height="544" fill="none" xmlns="http://www.w3.org/2000/svg"><path d="M290.56 296.157c-229.58 35.442-149.808-71.111-35.482-169.64C369.399 27.979 427 0 427 0S85.89 307.922 290.56 296.157z" fill="#0068B7" fill-opacity=".05"/><path d="M252.308 247.847c229.579-35.45 149.81 71.115 35.495 169.636C173.473 516.025 115.873 544 115.873 544s341.108-307.929 136.435-296.153zm-74.45-112.288c0 49.031-39.813 88.782-88.926 88.782C39.815 224.341 0 184.59 0 135.559c0-49.024 39.815-88.764 88.932-88.764 49.113 0 88.926 39.74 88.926 88.764z" fill="#0068B7" fill-opacity=".05"/></svg>