<svg width="252" height="85" fill="none" xmlns="http://www.w3.org/2000/svg"><path d="M11.6 69.704l-1.344.192c-.128-.64-.256-.96-.56-1.328-.512-.608-1.328-.928-2.368-.928-1.648 0-2.8.88-2.8 2.176 0 .832.448 1.424 1.392 1.808.432.176.448.176 2.288.576 2.56.544 3.584 1.52 3.584 3.376 0 2.256-1.552 3.536-4.304 3.536-1.792 0-3.12-.528-3.856-1.52-.416-.56-.592-1.056-.752-2.112l1.392-.176c.048.768.16 1.152.496 1.584.528.704 1.488 1.104 2.672 1.104 1.904 0 3.056-.896 3.056-2.384 0-.784-.32-1.376-.928-1.712-.528-.304-.704-.352-2.64-.784-1.008-.208-1.632-.432-2.176-.736-.992-.56-1.488-1.408-1.488-2.528 0-2.016 1.616-3.312 4.096-3.312 1.584 0 2.816.512 3.536 1.472.368.48.528.88.704 1.696zm10.575 7.968v1.344c-.512-.08-.944-.112-1.792-.112h-4.688c-.768 0-1.216.016-1.76.048.096-.608.128-1.088.128-1.904V68.52c0-.688-.032-1.12-.128-1.824.56.032.992.048 1.76.048h4.56c.704 0 1.248-.032 1.792-.112v1.344c-.56-.08-.992-.112-1.792-.112h-4.928v4.096h4.208c.704 0 1.184-.032 1.792-.112v1.344c-.544-.08-.96-.112-1.792-.112h-4.208v4.704H20.4c.736 0 1.184-.032 1.776-.112zm8.457 1.232H25.96a27.4 27.4 0 00-1.744.048c.096-.608.128-1.12.128-1.904v-8.416c0-.832-.032-1.328-.128-1.888h1.504c-.096.592-.128 1.008-.128 1.888v9.136h5.04c.8 0 1.232-.032 1.856-.112v1.36c-.512-.08-.96-.112-1.856-.112zm4.601-5.776v3.904c0 .864.032 1.296.128 1.872h-1.52c.096-.544.128-1.04.128-1.872V68.52c0-.688-.032-1.2-.128-1.824.56.032.992.048 1.76.048h4.24c.784 0 1.232-.032 1.84-.112v1.36c-.528-.08-.992-.112-1.84-.112h-4.608v4.128h3.744c.768 0 1.232-.032 1.824-.112v1.344c-.528-.08-.992-.112-1.824-.112h-3.744zm16.473 4.544v1.344c-.512-.08-.944-.112-1.792-.112h-4.688c-.768 0-1.216.016-1.76.048.096-.608.128-1.088.128-1.904V68.52c0-.688-.032-1.12-.128-1.824.56.032.992.048 1.76.048h4.56c.704 0 1.248-.032 1.792-.112v1.344c-.56-.08-.992-.112-1.792-.112h-4.928v4.096h4.208c.704 0 1.184-.032 1.792-.112v1.344c-.544-.08-.96-.112-1.792-.112h-4.208v4.704h5.072c.736 0 1.184-.032 1.776-.112zm10.282 0v1.344c-.512-.08-.944-.112-1.792-.112h-4.688c-.768 0-1.216.016-1.76.048.096-.608.128-1.088.128-1.904V68.52c0-.688-.032-1.12-.128-1.824.56.032.992.048 1.76.048h4.56c.704 0 1.248-.032 1.792-.112v1.344c-.56-.08-.992-.112-1.792-.112H55.14v4.096h4.208c.704 0 1.184-.032 1.792-.112v1.344c-.544-.08-.96-.112-1.792-.112H55.14v4.704h5.072c.736 0 1.184-.032 1.776-.112zm17.289-7.84l-1.28.368c-.24-.688-.416-1.024-.752-1.408-.64-.752-1.6-1.152-2.768-1.152-2.592 0-4.224 1.984-4.224 5.168 0 3.168 1.648 5.184 4.224 5.184 1.264 0 2.336-.48 2.992-1.344.336-.464.496-.864.64-1.6l1.328.32c-.272.944-.48 1.392-.864 1.904-.896 1.2-2.352 1.856-4.144 1.856-1.536 0-2.832-.48-3.744-1.408-1.12-1.12-1.728-2.864-1.728-4.864 0-2.064.64-3.808 1.824-4.976.928-.896 2.144-1.36 3.664-1.36 1.504 0 2.72.432 3.584 1.296.56.544.864 1.024 1.248 2.016zm5.966 9.28c-2.624 0-4.288-1.744-4.288-4.512s1.664-4.528 4.272-4.528c2.608 0 4.256 1.76 4.256 4.512 0 2.736-1.664 4.528-4.24 4.528zm.016-8.032c-1.904 0-3.072 1.328-3.072 3.488 0 2.176 1.168 3.504 3.04 3.504s3.024-1.328 3.024-3.488-1.152-3.504-2.992-3.504zm6.08 6.24h1.584v1.584h-1.584V77.32zm5.444 0v1.584c0 1.184-.192 1.568-1.008 2.064l-.433-.528c.657-.304.769-.544.769-1.536h-.928V77.32h1.6zm14.099 1.584h-4.672a27.4 27.4 0 00-1.744.048c.096-.608.128-1.12.128-1.904v-8.416c0-.832-.032-1.328-.128-1.888h1.504c-.096.592-.128 1.008-.128 1.888v9.136h5.04c.8 0 1.232-.032 1.856-.112v1.36c-.512-.08-.96-.112-1.856-.112zm4.121-11.008h1.44c-.08.512-.112 1.088-.112 1.776v.608h.768c.736 0 1.072-.016 1.632-.096V71.4c-.512-.08-.912-.096-1.632-.096h-.768v5.568c0 .464.064.704.208.848.176.176.448.272.784.272.416 0 .736-.096 1.264-.416l.352 1.12c-.656.272-1.152.368-1.808.368-.704 0-1.248-.176-1.568-.496-.32-.32-.448-.784-.448-1.536v-5.728h-.64c-.544 0-.912.032-1.44.096v-1.216c.448.08.768.096 1.44.096h.64v-.608c0-.64-.032-1.248-.112-1.776zm12.026 11.008v-.784c0-.224.016-.512.048-.784-.752 1.168-1.792 1.728-3.248 1.728-2.464 0-3.968-1.696-3.968-4.48 0-2.736 1.536-4.48 3.936-4.48 1.456 0 2.576.592 3.28 1.696l-.016-.24c-.048-.336-.048-.48-.048-.848v-2.144c0-.752-.032-1.216-.112-1.824h1.408a13.06 13.06 0 00-.112 1.808v8.512c0 .8.032 1.216.112 1.84h-1.28zm-3.104-7.76c-1.744 0-2.8 1.28-2.8 3.408 0 1.056.24 1.968.656 2.496.496.624 1.248.96 2.144.96 1.872 0 3.072-1.36 3.072-3.472 0-1.056-.32-1.984-.896-2.544-.56-.544-1.328-.848-2.176-.848zm6.664 6.176h1.584v1.584h-1.584V77.32z" fill="#fff"/><g clip-path="url(#clip0_4016_24)" fill="#fff"><path d="M55.891 26.41h-1.148l1.936-5.333c-2.055 2.258-4.214 3.642-5.044 4.167l-.458-1.02c2.514-1.442 4.336-3.016 5.619-4.43h-3.4l.407-1.121h3.749l.825-2.273h-1.846c-.776.976-1.338 1.486-1.718 1.85l-.846-.67c1.029-.874 1.999-1.865 3.367-4.313l1.148.16c-.215.394-.493.918-1.122 1.85h1.424l.873-2.403h1.148l-.873 2.404h3.197l-.407 1.121h-3.197l-.825 2.274h3.546l-.407 1.122h-3.14c.264 2.156.908 3.263 1.777 4.313l-1.112 1.224c-.918-1.195-1.425-2.681-1.505-4.343l-1.968 5.42zm-3.703-4.852c-.35-1.035-.467-1.516-.473-2.099l-2.523 6.95h-1.134l2.544-7.008a23.127 23.127 0 01-3.127 3.73l-.072-1.442c1.503-1.297 3.024-3.206 4.034-4.867h-2.02l.412-1.136h2.122l1.021-2.813h1.133l-1.02 2.813h1.802l-.413 1.136h-1.802l-.349.962c.037.7.512 1.952 1.011 2.74l-1.146 1.034zm17.399 3.045c-2.594.54-5.494.962-8.012 1.253l.26-1.195c.616-.058 1.413-.13 3.34-.393l1.66-4.575h-2.877l.412-1.137h6.918l-.413 1.137h-2.819l-1.597 4.4a77.772 77.772 0 003.486-.597l-.358 1.107zm5.375-11.686c-.216.598-.407 1.122-.843 2.405h4.606l-.417 1.15h-4.564c-.546 1.705-1.16 3.716-1.207 5.93-.029 1.08.342 2.58.923 2.58.407 0 1.102-1.034 1.682-2.39l.934.51c-.516 1.02-.97 1.909-1.618 2.536-.705.699-1.099.743-1.36.743-1.599 0-1.927-2.42-1.878-3.556.051-1.5.312-3.06.796-4.633.457-1.5.501-1.661.522-1.72h-7.673l.418-1.15h7.63c.224-.7.531-1.545.829-2.404h1.22zm2.347 2.303c-.383-.467-.805-.904-1.737-1.501l.986-.874c.865.539 1.205.845 1.806 1.471l-1.055.903zM47.477 31.495c2.158-1.18 3.462-2.171 4.509-3.133.302.729.77 1.72 2.263 3.133h-6.772zm3.11 5.202c.624 1.005.797 1.37 1.187 2.258-.592.03-3.515.233-4.17.277-.238.015-1.644.044-2.57.073a68.141 68.141 0 003.195-3.716h7.6l.402-1.107H43.24l-.402 1.107h3.982a41.632 41.632 0 01-3.118 3.745c-.456.014-1.76.044-2.035.044l-.318 1.194c4.131-.13 4.792-.189 10.812-.64.16.48.229.771.31 1.15l1.32-.714c-.502-1.82-1.051-2.87-2.005-4.327l-1.197.656zm4.01-4.882c.936.787 1.594 1.137 1.994 1.356l1.062-1.166c-2.2-.904-3.872-2.623-4.652-4.677h-1.294c-1.163 1.122-2.474 2.01-3.681 2.695-1.982 1.137-3.427 1.632-4.357 1.953l.173 1.166c.617-.22 1.66-.613 3.079-1.356l-.296.816h7.687l.286-.787zm4.811 9.18h-1.177l2.152-5.93c-1.222.845-2.049 1.282-2.537 1.544l-.065-1.18c2.952-1.486 4.99-3.38 5.888-4.532H59.6l.402-1.107h2.296l.862-2.375h1.178l-.863 2.375h1.89l-.402 1.108c-.373.466-1.06 1.354-2.526 2.593.433.889.774 1.311 1.385 1.909l-1.04 1.063c-.548-.611-.953-1.456-1.094-1.748l-2.28 6.28zm11.367-13.58l-1.528 4.21h3.197l-.434 1.196h-3.197l-2.343 6.455h3.531l-.433 1.194h-8.473l.434-1.194h3.72l2.343-6.455h-3.037l.434-1.195h3.037l1.529-4.211h1.22zm-42.591 1.439c-22.269 3.453-14.531-6.928-3.441-16.528C35.832 2.726 41.419 0 41.419 0S8.33 30 28.184 28.854z"/><path d="M24.474 24.147c22.269-3.454 14.531 6.929 3.442 16.527C16.826 50.274 11.24 53 11.24 53s33.087-30 13.234-28.853zm-7.222-10.94c0 4.777-3.862 8.65-8.626 8.65-4.764 0-8.626-3.873-8.626-8.65C0 8.431 3.862 4.56 8.626 4.56c4.764 0 8.626 3.872 8.626 8.648z"/><path d="M.513 13.208c0 4.485 3.64 8.135 8.114 8.135 4.473 0 8.112-3.65 8.112-8.135 0-4.485-3.639-8.135-8.112-8.135-4.474 0-8.114 3.65-8.114 8.135z"/><path d="M4.313 13.207a4.324 4.324 0 004.314 4.326 4.324 4.324 0 004.313-4.326 4.324 4.324 0 00-4.313-4.323 4.324 4.324 0 00-4.314 4.323z"/><path d="M12.427 13.208a3.805 3.805 0 01-3.8 3.81c-2.1 0-3.8-1.705-3.8-3.81a3.805 3.805 0 013.8-3.81c2.099 0 3.8 1.706 3.8 3.81zm205.164 10.457a2103.34 2103.34 0 01-1.135 3.155l-.259.72-.819 2.275h34.41c.096-.273.432-1.202.817-2.275l.259-.72.239-.665c.366-1.02.714-1.981.897-2.49h-34.409zm-67.729-1.051a38.95 38.95 0 01-2.019 3.54c-.144.223-.282.442-.436.666-.166.24-.346.48-.525.72-1.81 2.435-4.303 4.851-7.751 6.087l-1.304.467 2.273-6.554.25-.72.23-.665c2.213-6.377 5.004-14.423 5.341-15.39h-6.597l-5.315 15.39-.23.665-.25.72c-2.514 7.282-4.951 14.342-5.225 15.129 1.96-.033 5.434-.265 9.687-1.895 8.782-3.34 13.456-9.327 15.871-13.234.155-.248.301-.49.436-.72a54.158 54.158 0 00.733-1.284l-5.169-2.922zm-19.83 4.206c.103-.224.198-.443.296-.665 1.303-2.94 2.228-5.583 2.857-7.396l2.748-8.034h-6.599l-3.197 9.332c-.629 1.815-1.287 3.689-2.473 6.098-.109.219-.216.437-.333.665-.119.231-.254.48-.382.72a51.382 51.382 0 01-1.052 1.89c-2.673 4.561-5.128 6.589-6.882 7.902.517.772 2.784 4.155 3.382 5.05 5.244-3.82 8.856-9.654 11.3-14.842.114-.24.226-.482.335-.72zm30.034-16.103c-.222.648-1.705 4.922-2.151 6.208h24.284l-.519.97c-1.628 3.055-3.744 5.813-6.315 8.26-.235.223-.467.448-.71.665-.27.244-.549.483-.83.72-5.049 4.269-11.664 7.454-19.835 9.362.149.857.824 4.75 1.004 5.78 12.037-2.303 20.402-8.61 24.384-12.18a36.618 36.618 0 002.945-2.962c.212-.238.425-.476.632-.72.184-.215.357-.445.537-.665 3.504-4.291 6.37-9.525 8.555-15.438h-31.981zm49.588 7.722l-.289.219c-4.21 3.207-7.873 5.598-11.594 7.497a51.13 51.13 0 01-2.924 1.385c-2.953 1.295-6.038 2.338-9.546 3.268l-.369.097 1.029 5.688.767-.222c1.464-.427 3.912-1.14 8.032-2.855 0 0 .211-.09.456-.191l-3.257 9.395h6.884s4.534-13.07 4.633-13.36l.067-.037a65.06 65.06 0 002.958-1.783 110.563 110.563 0 002.127-1.386 215.444 215.444 0 004.859-3.348l.417-.296-4.25-4.072zM99.418 16.726l2.086-6.013h-6.761l-2.087 6.02s-8.059.008-8.848.01c-.23.633-1.726 4.781-2.19 6.07h8.93l-1.159 3.342-.23.665-.25.72-2.792 8.054c-1.174 3.385-.66 4.563-.172 5.155 1.5 1.795 4.883 1.887 5.545 1.887h17.513l2.213-6.094H96.035c-1.558 0-2.336-.06-2.733-.611-.366-.507-.161-1.096.055-1.719l2.312-6.672.25-.72.23-.665 1.16-3.343h11.925l-.907 1.078c-.712.844-1.607 1.598-2.569 2.265-.336.232-.679.454-1.027.665-.423.257-.852.496-1.277.72a32.471 32.471 0 01-3.916 1.73l2.189 4.357c4.293-1.712 7.552-3.829 10.077-6.087.267-.239.533-.477.784-.72.229-.22.433-.443.648-.665 3.106-3.203 4.9-6.58 6.065-9.45l-19.883.021z"/></g><defs><clipPath id="clip0_4016_24"><path fill="#fff" d="M0 0h252v53H0z"/></clipPath></defs></svg>