<svg width="515" height="287" fill="none" xmlns="http://www.w3.org/2000/svg"><path d="M0 2.506h5.012M2.506 5.012V0m11.658 2.506h5.012M16.67 5.012V0m-2.506 2.506h5.012M16.67 5.012V0m11.658 2.506h5.012m-2.506 2.506V0m-2.506 2.506h5.012m-2.506 2.506V0m11.658 2.506h5.012m-2.506 2.506V0m-2.506 2.506h5.012m-2.506 2.506V0m11.658 2.506h5.012m-2.506 2.506V0m-2.506 2.506h5.012m-2.506 2.506V0M70.82 2.506h5.012m-2.506 2.506V0M70.82 2.506h5.012m-2.506 2.506V0m11.658 2.506h5.012M87.49 5.012V0m-2.506 2.506h5.012M87.49 5.012V0m11.658 2.506h5.012m-2.506 2.506V0m-2.506 2.506h5.012m-2.506 2.506V0m11.658 2.506h5.012m-2.506 2.506V0m-2.506 2.506h5.012m-2.506 2.506V0m11.658 2.506h5.012m-2.506 2.506V0m-2.506 2.506h5.012m-2.506 2.506V0m11.658 2.506h5.012m-2.506 2.506V0m-2.506 2.506h5.012m-2.506 2.506V0m11.657 2.506h5.013m-2.506 2.506V0m-2.507 2.506h5.013m-2.506 2.506V0m11.658 2.506h5.012m-2.506 2.506V0m-2.506 2.506h5.012m-2.506 2.506V0m11.657 2.506h5.013m-2.506 2.506V0m-2.507 2.506h5.013m-2.506 2.506V0m11.657 2.506h5.013m-2.506 2.506V0m-2.507 2.506h5.013m-2.506 2.506V0m11.657 2.506h5.013m-2.506 2.506V0m-2.507 2.506h5.013m-2.506 2.506V0m11.657 2.506h5.013m-2.507 2.506V0m-2.506 2.506h5.013m-2.507 2.506V0m11.658 2.506h5.013m-2.507 2.506V0m-2.506 2.506h5.013m-2.507 2.506V0m11.658 2.506h5.013m-2.507 2.506V0m-2.506 2.506h5.013m-2.507 2.506V0m11.658 2.506h5.013m-2.507 2.506V0m-2.506 2.506h5.013m-2.507 2.506V0m11.658 2.506h5.012m-2.506 2.506V0m-2.506 2.506h5.012m-2.506 2.506V0m11.658 2.506h5.013m-2.507 2.506V0m-2.506 2.506h5.013m-2.507 2.506V0m11.658 2.506h5.012m-2.506 2.506V0m-2.506 2.506h5.012m-2.506 2.506V0m11.658 2.506h5.012m-2.506 2.506V0m-2.506 2.506h5.012m-2.506 2.506V0m11.658 2.506h5.012m-2.506 2.506V0m-2.506 2.506h5.012m-2.506 2.506V0m11.658 2.506h5.012m-2.506 2.506V0m-2.506 2.506h5.012m-2.506 2.506V0m11.658 2.506h5.012m-2.506 2.506V0m-2.506 2.506h5.012m-2.506 2.506V0m11.658 2.506h5.012m-2.506 2.506V0m-2.506 2.506h5.012m-2.506 2.506V0m11.658 2.506h5.012m-2.506 2.506V0m-2.506 2.506h5.012m-2.506 2.506V0m11.658 2.506h5.012m-2.506 2.506V0m-2.506 2.506h5.012m-2.506 2.506V0m11.658 2.506h5.012m-2.506 2.506V0m-2.506 2.506h5.012m-2.506 2.506V0m11.658 2.506h5.012m-2.506 2.506V0m-2.506 2.506h5.012m-2.506 2.506V0m11.658 2.506h5.012m-2.506 2.506V0m-2.506 2.506h5.012m-2.506 2.506V0m11.658 2.506h5.012m-2.506 2.506V0m-2.506 2.506h5.012m-2.506 2.506V0m11.657 2.506h5.013m-2.506 2.506V0m-2.507 2.506h5.013m-2.506 2.506V0m11.658 2.506h5.012m-2.506 2.506V0m-2.506 2.506h5.012m-2.506 2.506V0m11.657 2.506h5.013m-2.506 2.506V0M0 16.59h5.012m-2.506 2.506v-5.013m11.658 2.507h5.012m-2.506 2.506v-5.013m-2.506 2.507h5.012m-2.506 2.506v-5.013m11.658 2.507h5.012m-2.506 2.506v-5.013m-2.506 2.507h5.012m-2.506 2.506v-5.013m11.658 2.507h5.012m-2.506 2.506v-5.013m-2.506 2.507h5.012m-2.506 2.506v-5.013m11.658 2.507h5.012m-2.506 2.506v-5.013m-2.506 2.507h5.012m-2.506 2.506v-5.013M70.82 16.59h5.012m-2.506 2.506v-5.013M70.82 16.59h5.012m-2.506 2.506v-5.013m11.658 2.507h5.012m-2.506 2.506v-5.013m-2.506 2.507h5.012m-2.506 2.506v-5.013m11.658 2.507h5.012m-2.506 2.506v-5.013m-2.506 2.507h5.012m-2.506 2.506v-5.013m11.658 2.507h5.012m-2.506 2.506v-5.013m-2.506 2.507h5.012m-2.506 2.506v-5.013m11.658 2.507h5.012m-2.506 2.506v-5.013m-2.506 2.507h5.012m-2.506 2.506v-5.013m11.658 2.507h5.012m-2.506 2.506v-5.013m-2.506 2.507h5.012m-2.506 2.506v-5.013m11.657 2.507h5.013m-2.506 2.506v-5.013m-2.507 2.507h5.013m-2.506 2.506v-5.013m11.658 2.507h5.012m-2.506 2.506v-5.013m-2.506 2.507h5.012m-2.506 2.506v-5.013m11.657 2.507h5.013m-2.506 2.506v-5.013m-2.507 2.507h5.013m-2.506 2.506v-5.013m11.657 2.507h5.013m-2.506 2.506v-5.013m-2.507 2.507h5.013m-2.506 2.506v-5.013m11.657 2.507h5.013m-2.506 2.506v-5.013m-2.507 2.507h5.013m-2.506 2.506v-5.013m11.657 2.507h5.013m-2.507 2.506v-5.013m-2.506 2.507h5.013m-2.507 2.506v-5.013m11.658 2.507h5.013m-2.507 2.506v-5.013m-2.506 2.507h5.013m-2.507 2.506v-5.013m11.658 2.507h5.013m-2.507 2.506v-5.013m-2.506 2.507h5.013m-2.507 2.506v-5.013m11.658 2.507h5.013m-2.507 2.506v-5.013m-2.506 2.507h5.013m-2.507 2.506v-5.013m11.658 2.507h5.012m-2.506 2.506v-5.013m-2.506 2.507h5.012m-2.506 2.506v-5.013m11.658 2.507h5.013m-2.507 2.506v-5.013m-2.506 2.507h5.013m-2.507 2.506v-5.013m11.658 2.507h5.012m-2.506 2.506v-5.013m-2.506 2.507h5.012m-2.506 2.506v-5.013m11.658 2.507h5.012m-2.506 2.506v-5.013m-2.506 2.507h5.012m-2.506 2.506v-5.013m11.658 2.507h5.012m-2.506 2.506v-5.013m-2.506 2.507h5.012m-2.506 2.506v-5.013m11.658 2.507h5.012m-2.506 2.506v-5.013m-2.506 2.507h5.012m-2.506 2.506v-5.013m11.658 2.507h5.012m-2.506 2.506v-5.013m-2.506 2.507h5.012m-2.506 2.506v-5.013m11.658 2.507h5.012m-2.506 2.506v-5.013m-2.506 2.507h5.012m-2.506 2.506v-5.013m11.658 2.507h5.012m-2.506 2.506v-5.013m-2.506 2.507h5.012m-2.506 2.506v-5.013m11.658 2.507h5.012m-2.506 2.506v-5.013m-2.506 2.507h5.012m-2.506 2.506v-5.013m11.658 2.507h5.012m-2.506 2.506v-5.013m-2.506 2.507h5.012m-2.506 2.506v-5.013m11.658 2.507h5.012m-2.506 2.506v-5.013m-2.506 2.507h5.012m-2.506 2.506v-5.013m11.658 2.507h5.012m-2.506 2.506v-5.013m-2.506 2.507h5.012m-2.506 2.506v-5.013m11.658 2.507h5.012m-2.506 2.506v-5.013m-2.506 2.507h5.012m-2.506 2.506v-5.013m11.657 2.507h5.013m-2.506 2.506v-5.013m-2.507 2.507h5.013m-2.506 2.506v-5.013m11.658 2.507h5.012m-2.506 2.506v-5.013m-2.506 2.507h5.012m-2.506 2.506v-5.013m11.657 2.507h5.013m-2.506 2.506v-5.013M0 30.673h5.012m-2.506 2.506v-5.012m11.658 2.506h5.012m-2.506 2.506v-5.012m-2.506 2.506h5.012m-2.506 2.506v-5.012m11.658 2.506h5.012m-2.506 2.506v-5.012m-2.506 2.506h5.012m-2.506 2.506v-5.012m11.658 2.506h5.012m-2.506 2.506v-5.012m-2.506 2.506h5.012m-2.506 2.506v-5.012m11.658 2.506h5.012m-2.506 2.506v-5.012m-2.506 2.506h5.012m-2.506 2.506v-5.012m11.658 2.506h5.012m-2.506 2.506v-5.012m-2.506 2.506h5.012m-2.506 2.506v-5.012m11.658 2.506h5.012m-2.506 2.506v-5.012m-2.506 2.506h5.012m-2.506 2.506v-5.012m11.658 2.506h5.012m-2.506 2.506v-5.012m-2.506 2.506h5.012m-2.506 2.506v-5.012m11.658 2.506h5.012m-2.506 2.506v-5.012m-2.506 2.506h5.012m-2.506 2.506v-5.012m11.658 2.506h5.012m-2.506 2.506v-5.012m-2.506 2.506h5.012m-2.506 2.506v-5.012m11.658 2.506h5.012m-2.506 2.506v-5.012m-2.506 2.506h5.012m-2.506 2.506v-5.012m11.657 2.506h5.013m-2.506 2.506v-5.012m-2.507 2.506h5.013m-2.506 2.506v-5.012m11.658 2.506h5.012m-2.506 2.506v-5.012m-2.506 2.506h5.012m-2.506 2.506v-5.012m11.657 2.506h5.013m-2.506 2.506v-5.012m-2.507 2.506h5.013m-2.506 2.506v-5.012m11.657 2.506h5.013m-2.506 2.506v-5.012m-2.507 2.506h5.013m-2.506 2.506v-5.012m11.657 2.506h5.013m-2.506 2.506v-5.012m-2.507 2.506h5.013m-2.506 2.506v-5.012m11.657 2.506h5.013m-2.507 2.506v-5.012m-2.506 2.506h5.013m-2.507 2.506v-5.012m11.658 2.506h5.013m-2.507 2.506v-5.012m-2.506 2.506h5.013m-2.507 2.506v-5.012m11.658 2.506h5.013m-2.507 2.506v-5.012m-2.506 2.506h5.013m-2.507 2.506v-5.012m11.658 2.506h5.013m-2.507 2.506v-5.012m-2.506 2.506h5.013m-2.507 2.506v-5.012m11.658 2.506h5.012m-2.506 2.506v-5.012m-2.506 2.506h5.012m-2.506 2.506v-5.012m11.658 2.506h5.013m-2.507 2.506v-5.012m-2.506 2.506h5.013m-2.507 2.506v-5.012m11.658 2.506h5.012m-2.506 2.506v-5.012m-2.506 2.506h5.012m-2.506 2.506v-5.012m11.658 2.506h5.012m-2.506 2.506v-5.012m-2.506 2.506h5.012m-2.506 2.506v-5.012m11.658 2.506h5.012m-2.506 2.506v-5.012m-2.506 2.506h5.012m-2.506 2.506v-5.012m11.658 2.506h5.012m-2.506 2.506v-5.012m-2.506 2.506h5.012m-2.506 2.506v-5.012m11.658 2.506h5.012m-2.506 2.506v-5.012m-2.506 2.506h5.012m-2.506 2.506v-5.012m11.658 2.506h5.012m-2.506 2.506v-5.012m-2.506 2.506h5.012m-2.506 2.506v-5.012m11.658 2.506h5.012m-2.506 2.506v-5.012m-2.506 2.506h5.012m-2.506 2.506v-5.012m11.658 2.506h5.012m-2.506 2.506v-5.012m-2.506 2.506h5.012m-2.506 2.506v-5.012m11.658 2.506h5.012m-2.506 2.506v-5.012m-2.506 2.506h5.012m-2.506 2.506v-5.012m11.658 2.506h5.012m-2.506 2.506v-5.012m-2.506 2.506h5.012m-2.506 2.506v-5.012m11.658 2.506h5.012m-2.506 2.506v-5.012m-2.506 2.506h5.012m-2.506 2.506v-5.012m11.658 2.506h5.012m-2.506 2.506v-5.012m-2.506 2.506h5.012m-2.506 2.506v-5.012m11.657 2.506h5.013m-2.506 2.506v-5.012m-2.507 2.506h5.013m-2.506 2.506v-5.012m11.658 2.506h5.012m-2.506 2.506v-5.012m-2.506 2.506h5.012m-2.506 2.506v-5.012m11.657 2.506h5.013m-2.506 2.506v-5.012M0 44.756h5.012m-2.506 2.506V42.25m11.658 2.506h5.012m-2.506 2.506V42.25m-2.506 2.506h5.012m-2.506 2.506V42.25m11.658 2.506h5.012m-2.506 2.506V42.25m-2.506 2.506h5.012m-2.506 2.506V42.25m11.658 2.506h5.012m-2.506 2.506V42.25m-2.506 2.506h5.012m-2.506 2.506V42.25m11.658 2.506h5.012m-2.506 2.506V42.25m-2.506 2.506h5.012m-2.506 2.506V42.25m11.658 2.506h5.012m-2.506 2.506V42.25m-2.506 2.506h5.012m-2.506 2.506V42.25m11.658 2.506h5.012m-2.506 2.506V42.25m-2.506 2.506h5.012m-2.506 2.506V42.25m11.658 2.506h5.012m-2.506 2.506V42.25m-2.506 2.506h5.012m-2.506 2.506V42.25m11.658 2.506h5.012m-2.506 2.506V42.25m-2.506 2.506h5.012m-2.506 2.506V42.25m11.658 2.506h5.012m-2.506 2.506V42.25m-2.506 2.506h5.012m-2.506 2.506V42.25m11.658 2.506h5.012m-2.506 2.506V42.25m-2.506 2.506h5.012m-2.506 2.506V42.25m11.657 2.506h5.013m-2.506 2.506V42.25m-2.507 2.506h5.013m-2.506 2.506V42.25m11.658 2.506h5.012m-2.506 2.506V42.25m-2.506 2.506h5.012m-2.506 2.506V42.25m11.657 2.506h5.013m-2.506 2.506V42.25m-2.507 2.506h5.013m-2.506 2.506V42.25m11.657 2.506h5.013m-2.506 2.506V42.25m-2.507 2.506h5.013m-2.506 2.506V42.25m11.657 2.506h5.013m-2.506 2.506V42.25m-2.507 2.506h5.013m-2.506 2.506V42.25m11.657 2.506h5.013m-2.507 2.506V42.25m-2.506 2.506h5.013m-2.507 2.506V42.25m11.658 2.506h5.013m-2.507 2.506V42.25m-2.506 2.506h5.013m-2.507 2.506V42.25m11.658 2.506h5.013m-2.507 2.506V42.25m-2.506 2.506h5.013m-2.507 2.506V42.25m11.658 2.506h5.013m-2.507 2.506V42.25m-2.506 2.506h5.013m-2.507 2.506V42.25m11.658 2.506h5.012m-2.506 2.506V42.25m-2.506 2.506h5.012m-2.506 2.506V42.25m11.658 2.506h5.013m-2.507 2.506V42.25m-2.506 2.506h5.013m-2.507 2.506V42.25m11.658 2.506h5.012m-2.506 2.506V42.25m-2.506 2.506h5.012m-2.506 2.506V42.25m11.658 2.506h5.012m-2.506 2.506V42.25m-2.506 2.506h5.012m-2.506 2.506V42.25m11.658 2.506h5.012m-2.506 2.506V42.25m-2.506 2.506h5.012m-2.506 2.506V42.25m11.658 2.506h5.012m-2.506 2.506V42.25m-2.506 2.506h5.012m-2.506 2.506V42.25m11.658 2.506h5.012m-2.506 2.506V42.25m-2.506 2.506h5.012m-2.506 2.506V42.25m11.658 2.506h5.012m-2.506 2.506V42.25m-2.506 2.506h5.012m-2.506 2.506V42.25m11.658 2.506h5.012m-2.506 2.506V42.25m-2.506 2.506h5.012m-2.506 2.506V42.25m11.658 2.506h5.012m-2.506 2.506V42.25m-2.506 2.506h5.012m-2.506 2.506V42.25m11.658 2.506h5.012m-2.506 2.506V42.25m-2.506 2.506h5.012m-2.506 2.506V42.25m11.658 2.506h5.012m-2.506 2.506V42.25m-2.506 2.506h5.012m-2.506 2.506V42.25m11.658 2.506h5.012m-2.506 2.506V42.25m-2.506 2.506h5.012m-2.506 2.506V42.25m11.658 2.506h5.012m-2.506 2.506V42.25m-2.506 2.506h5.012m-2.506 2.506V42.25m11.657 2.506h5.013m-2.506 2.506V42.25m-2.507 2.506h5.013m-2.506 2.506V42.25m11.658 2.506h5.012m-2.506 2.506V42.25m-2.506 2.506h5.012m-2.506 2.506V42.25m11.657 2.506h5.013m-2.506 2.506V42.25M0 58.84h5.012m-2.506 2.506v-5.013m11.658 2.507h5.012m-2.506 2.506v-5.013m-2.506 2.507h5.012m-2.506 2.506v-5.013m11.658 2.507h5.012m-2.506 2.506v-5.013m-2.506 2.507h5.012m-2.506 2.506v-5.013m11.658 2.507h5.012m-2.506 2.506v-5.013m-2.506 2.507h5.012m-2.506 2.506v-5.013m11.658 2.507h5.012m-2.506 2.506v-5.013m-2.506 2.507h5.012m-2.506 2.506v-5.013M70.82 58.84h5.012m-2.506 2.506v-5.013M70.82 58.84h5.012m-2.506 2.506v-5.013m11.658 2.507h5.012m-2.506 2.506v-5.013m-2.506 2.507h5.012m-2.506 2.506v-5.013m11.658 2.507h5.012m-2.506 2.506v-5.013m-2.506 2.507h5.012m-2.506 2.506v-5.013m11.658 2.507h5.012m-2.506 2.506v-5.013m-2.506 2.507h5.012m-2.506 2.506v-5.013m11.658 2.507h5.012m-2.506 2.506v-5.013m-2.506 2.507h5.012m-2.506 2.506v-5.013m11.658 2.507h5.012m-2.506 2.506v-5.013m-2.506 2.507h5.012m-2.506 2.506v-5.013m11.657 2.507h5.013m-2.506 2.506v-5.013m-2.507 2.507h5.013m-2.506 2.506v-5.013m11.658 2.507h5.012m-2.506 2.506v-5.013m-2.506 2.507h5.012m-2.506 2.506v-5.013m11.657 2.507h5.013m-2.506 2.506v-5.013m-2.507 2.507h5.013m-2.506 2.506v-5.013m11.657 2.507h5.013m-2.506 2.506v-5.013m-2.507 2.507h5.013m-2.506 2.506v-5.013m11.657 2.507h5.013m-2.506 2.506v-5.013m-2.507 2.507h5.013m-2.506 2.506v-5.013m11.657 2.507h5.013m-2.507 2.506v-5.013m-2.506 2.507h5.013m-2.507 2.506v-5.013m11.658 2.507h5.013m-2.507 2.506v-5.013m-2.506 2.507h5.013m-2.507 2.506v-5.013m11.658 2.507h5.013m-2.507 2.506v-5.013m-2.506 2.507h5.013m-2.507 2.506v-5.013m11.658 2.507h5.013m-2.507 2.506v-5.013m-2.506 2.507h5.013m-2.507 2.506v-5.013m11.658 2.507h5.012m-2.506 2.506v-5.013m-2.506 2.507h5.012m-2.506 2.506v-5.013m11.658 2.507h5.013m-2.507 2.506v-5.013m-2.506 2.507h5.013m-2.507 2.506v-5.013m11.658 2.507h5.012m-2.506 2.506v-5.013m-2.506 2.507h5.012m-2.506 2.506v-5.013m11.658 2.507h5.012m-2.506 2.506v-5.013m-2.506 2.507h5.012m-2.506 2.506v-5.013m11.658 2.507h5.012m-2.506 2.506v-5.013m-2.506 2.507h5.012m-2.506 2.506v-5.013m11.658 2.507h5.012m-2.506 2.506v-5.013m-2.506 2.507h5.012m-2.506 2.506v-5.013m11.658 2.507h5.012m-2.506 2.506v-5.013m-2.506 2.507h5.012m-2.506 2.506v-5.013m11.658 2.507h5.012m-2.506 2.506v-5.013m-2.506 2.507h5.012m-2.506 2.506v-5.013m11.658 2.507h5.012m-2.506 2.506v-5.013m-2.506 2.507h5.012m-2.506 2.506v-5.013m11.658 2.507h5.012m-2.506 2.506v-5.013m-2.506 2.507h5.012m-2.506 2.506v-5.013m11.658 2.507h5.012m-2.506 2.506v-5.013m-2.506 2.507h5.012m-2.506 2.506v-5.013m11.658 2.507h5.012m-2.506 2.506v-5.013m-2.506 2.507h5.012m-2.506 2.506v-5.013m11.658 2.507h5.012m-2.506 2.506v-5.013m-2.506 2.507h5.012m-2.506 2.506v-5.013m11.658 2.507h5.012m-2.506 2.506v-5.013m-2.506 2.507h5.012m-2.506 2.506v-5.013m11.657 2.507h5.013m-2.506 2.506v-5.013m-2.507 2.507h5.013m-2.506 2.506v-5.013m11.658 2.507h5.012m-2.506 2.506v-5.013m-2.506 2.507h5.012m-2.506 2.506v-5.013m11.657 2.507h5.013m-2.506 2.506v-5.013M0 72.923h5.012m-2.506 2.506v-5.012m11.658 2.506h5.012m-2.506 2.506v-5.012m-2.506 2.506h5.012m-2.506 2.506v-5.012m11.658 2.506h5.012m-2.506 2.506v-5.012m-2.506 2.506h5.012m-2.506 2.506v-5.012m11.658 2.506h5.012m-2.506 2.506v-5.012m-2.506 2.506h5.012m-2.506 2.506v-5.012m11.658 2.506h5.012m-2.506 2.506v-5.012m-2.506 2.506h5.012m-2.506 2.506v-5.012m11.658 2.506h5.012m-2.506 2.506v-5.012m-2.506 2.506h5.012m-2.506 2.506v-5.012m11.658 2.506h5.012m-2.506 2.506v-5.012m-2.506 2.506h5.012m-2.506 2.506v-5.012m11.658 2.506h5.012m-2.506 2.506v-5.012m-2.506 2.506h5.012m-2.506 2.506v-5.012m11.658 2.506h5.012m-2.506 2.506v-5.012m-2.506 2.506h5.012m-2.506 2.506v-5.012m11.658 2.506h5.012m-2.506 2.506v-5.012m-2.506 2.506h5.012m-2.506 2.506v-5.012m11.658 2.506h5.012m-2.506 2.506v-5.012m-2.506 2.506h5.012m-2.506 2.506v-5.012m11.657 2.506h5.013m-2.506 2.506v-5.012m-2.507 2.506h5.013m-2.506 2.506v-5.012m11.658 2.506h5.012m-2.506 2.506v-5.012m-2.506 2.506h5.012m-2.506 2.506v-5.012m11.657 2.506h5.013m-2.506 2.506v-5.012m-2.507 2.506h5.013m-2.506 2.506v-5.012m11.657 2.506h5.013m-2.506 2.506v-5.012m-2.507 2.506h5.013m-2.506 2.506v-5.012m11.657 2.506h5.013m-2.506 2.506v-5.012m-2.507 2.506h5.013m-2.506 2.506v-5.012m11.657 2.506h5.013m-2.507 2.506v-5.012m-2.506 2.506h5.013m-2.507 2.506v-5.012m11.658 2.506h5.013m-2.507 2.506v-5.012m-2.506 2.506h5.013m-2.507 2.506v-5.012m11.658 2.506h5.013m-2.507 2.506v-5.012m-2.506 2.506h5.013m-2.507 2.506v-5.012m11.658 2.506h5.013m-2.507 2.506v-5.012m-2.506 2.506h5.013m-2.507 2.506v-5.012m11.658 2.506h5.012m-2.506 2.506v-5.012m-2.506 2.506h5.012m-2.506 2.506v-5.012m11.658 2.506h5.013m-2.507 2.506v-5.012m-2.506 2.506h5.013m-2.507 2.506v-5.012m11.658 2.506h5.012m-2.506 2.506v-5.012m-2.506 2.506h5.012m-2.506 2.506v-5.012m11.658 2.506h5.012m-2.506 2.506v-5.012m-2.506 2.506h5.012m-2.506 2.506v-5.012m11.658 2.506h5.012m-2.506 2.506v-5.012m-2.506 2.506h5.012m-2.506 2.506v-5.012m11.658 2.506h5.012m-2.506 2.506v-5.012m-2.506 2.506h5.012m-2.506 2.506v-5.012m11.658 2.506h5.012m-2.506 2.506v-5.012m-2.506 2.506h5.012m-2.506 2.506v-5.012m11.658 2.506h5.012m-2.506 2.506v-5.012m-2.506 2.506h5.012m-2.506 2.506v-5.012m11.658 2.506h5.012m-2.506 2.506v-5.012m-2.506 2.506h5.012m-2.506 2.506v-5.012m11.658 2.506h5.012m-2.506 2.506v-5.012m-2.506 2.506h5.012m-2.506 2.506v-5.012m11.658 2.506h5.012m-2.506 2.506v-5.012m-2.506 2.506h5.012m-2.506 2.506v-5.012m11.658 2.506h5.012m-2.506 2.506v-5.012m-2.506 2.506h5.012m-2.506 2.506v-5.012m11.658 2.506h5.012m-2.506 2.506v-5.012m-2.506 2.506h5.012m-2.506 2.506v-5.012m11.658 2.506h5.012m-2.506 2.506v-5.012m-2.506 2.506h5.012m-2.506 2.506v-5.012m11.657 2.506h5.013m-2.506 2.506v-5.012m-2.507 2.506h5.013m-2.506 2.506v-5.012m11.658 2.506h5.012m-2.506 2.506v-5.012m-2.506 2.506h5.012m-2.506 2.506v-5.012m11.657 2.506h5.013m-2.506 2.506v-5.012M0 87.006h5.012m-2.506 2.506V84.5m11.658 2.506h5.012m-2.506 2.506V84.5m-2.506 2.506h5.012m-2.506 2.506V84.5m11.658 2.506h5.012m-2.506 2.506V84.5m-2.506 2.506h5.012m-2.506 2.506V84.5m11.658 2.506h5.012m-2.506 2.506V84.5m-2.506 2.506h5.012m-2.506 2.506V84.5m11.658 2.506h5.012m-2.506 2.506V84.5m-2.506 2.506h5.012m-2.506 2.506V84.5m11.658 2.506h5.012m-2.506 2.506V84.5m-2.506 2.506h5.012m-2.506 2.506V84.5m11.658 2.506h5.012m-2.506 2.506V84.5m-2.506 2.506h5.012m-2.506 2.506V84.5m11.658 2.506h5.012m-2.506 2.506V84.5m-2.506 2.506h5.012m-2.506 2.506V84.5m11.658 2.506h5.012m-2.506 2.506V84.5m-2.506 2.506h5.012m-2.506 2.506V84.5m11.658 2.506h5.012m-2.506 2.506V84.5m-2.506 2.506h5.012m-2.506 2.506V84.5m11.658 2.506h5.012m-2.506 2.506V84.5m-2.506 2.506h5.012m-2.506 2.506V84.5m11.657 2.506h5.013m-2.506 2.506V84.5m-2.507 2.506h5.013m-2.506 2.506V84.5m11.658 2.506h5.012m-2.506 2.506V84.5m-2.506 2.506h5.012m-2.506 2.506V84.5m11.657 2.506h5.013m-2.506 2.506V84.5m-2.507 2.506h5.013m-2.506 2.506V84.5m11.657 2.506h5.013m-2.506 2.506V84.5m-2.507 2.506h5.013m-2.506 2.506V84.5m11.657 2.506h5.013m-2.506 2.506V84.5m-2.507 2.506h5.013m-2.506 2.506V84.5m11.657 2.506h5.013m-2.507 2.506V84.5m-2.506 2.506h5.013m-2.507 2.506V84.5m11.658 2.506h5.013m-2.507 2.506V84.5m-2.506 2.506h5.013m-2.507 2.506V84.5m11.658 2.506h5.013m-2.507 2.506V84.5m-2.506 2.506h5.013m-2.507 2.506V84.5m11.658 2.506h5.013m-2.507 2.506V84.5m-2.506 2.506h5.013m-2.507 2.506V84.5m11.658 2.506h5.012m-2.506 2.506V84.5m-2.506 2.506h5.012m-2.506 2.506V84.5m11.658 2.506h5.013m-2.507 2.506V84.5m-2.506 2.506h5.013m-2.507 2.506V84.5m11.658 2.506h5.012m-2.506 2.506V84.5m-2.506 2.506h5.012m-2.506 2.506V84.5m11.658 2.506h5.012m-2.506 2.506V84.5m-2.506 2.506h5.012m-2.506 2.506V84.5m11.658 2.506h5.012m-2.506 2.506V84.5m-2.506 2.506h5.012m-2.506 2.506V84.5m11.658 2.506h5.012m-2.506 2.506V84.5m-2.506 2.506h5.012m-2.506 2.506V84.5m11.658 2.506h5.012m-2.506 2.506V84.5m-2.506 2.506h5.012m-2.506 2.506V84.5m11.658 2.506h5.012m-2.506 2.506V84.5m-2.506 2.506h5.012m-2.506 2.506V84.5m11.658 2.506h5.012m-2.506 2.506V84.5m-2.506 2.506h5.012m-2.506 2.506V84.5m11.658 2.506h5.012m-2.506 2.506V84.5m-2.506 2.506h5.012m-2.506 2.506V84.5m11.658 2.506h5.012m-2.506 2.506V84.5m-2.506 2.506h5.012m-2.506 2.506V84.5m11.658 2.506h5.012m-2.506 2.506V84.5m-2.506 2.506h5.012m-2.506 2.506V84.5m11.658 2.506h5.012m-2.506 2.506V84.5m-2.506 2.506h5.012m-2.506 2.506V84.5m11.658 2.506h5.012m-2.506 2.506V84.5m-2.506 2.506h5.012m-2.506 2.506V84.5m11.657 2.506h5.013m-2.506 2.506V84.5m-2.507 2.506h5.013m-2.506 2.506V84.5m11.658 2.506h5.012m-2.506 2.506V84.5m-2.506 2.506h5.012m-2.506 2.506V84.5m11.657 2.506h5.013m-2.506 2.506V84.5M0 101.089h5.012m-2.506 2.507v-5.013m11.658 2.506h5.012m-2.506 2.507v-5.013m-2.506 2.506h5.012m-2.506 2.507v-5.013m11.658 2.506h5.012m-2.506 2.507v-5.013m-2.506 2.506h5.012m-2.506 2.507v-5.013m11.658 2.506h5.012m-2.506 2.507v-5.013m-2.506 2.506h5.012m-2.506 2.507v-5.013m11.658 2.506h5.012m-2.506 2.507v-5.013m-2.506 2.506h5.012m-2.506 2.507v-5.013m11.658 2.506h5.012m-2.506 2.507v-5.013m-2.506 2.506h5.012m-2.506 2.507v-5.013m11.658 2.506h5.012m-2.506 2.507v-5.013m-2.506 2.506h5.012m-2.506 2.507v-5.013m11.658 2.506h5.012m-2.506 2.507v-5.013m-2.506 2.506h5.012m-2.506 2.507v-5.013m11.658 2.506h5.012m-2.506 2.507v-5.013m-2.506 2.506h5.012m-2.506 2.507v-5.013m11.658 2.506h5.012m-2.506 2.507v-5.013m-2.506 2.506h5.012m-2.506 2.507v-5.013m11.658 2.506h5.012m-2.506 2.507v-5.013m-2.506 2.506h5.012m-2.506 2.507v-5.013m11.657 2.506h5.013m-2.506 2.507v-5.013m-2.507 2.506h5.013m-2.506 2.507v-5.013m11.658 2.506h5.012m-2.506 2.507v-5.013m-2.506 2.506h5.012m-2.506 2.507v-5.013m11.657 2.506h5.013m-2.506 2.507v-5.013m-2.507 2.506h5.013m-2.506 2.507v-5.013m11.657 2.506h5.013m-2.506 2.507v-5.013m-2.507 2.506h5.013m-2.506 2.507v-5.013m11.657 2.506h5.013m-2.506 2.507v-5.013m-2.507 2.506h5.013m-2.506 2.507v-5.013m11.657 2.506h5.013m-2.507 2.507v-5.013m-2.506 2.506h5.013m-2.507 2.507v-5.013m11.658 2.506h5.013m-2.507 2.507v-5.013m-2.506 2.506h5.013m-2.507 2.507v-5.013m11.658 2.506h5.013m-2.507 2.507v-5.013m-2.506 2.506h5.013m-2.507 2.507v-5.013m11.658 2.506h5.013m-2.507 2.507v-5.013m-2.506 2.506h5.013m-2.507 2.507v-5.013m11.658 2.506h5.012m-2.506 2.507v-5.013m-2.506 2.506h5.012m-2.506 2.507v-5.013m11.658 2.506h5.013m-2.507 2.507v-5.013m-2.506 2.506h5.013m-2.507 2.507v-5.013m11.658 2.506h5.012m-2.506 2.507v-5.013m-2.506 2.506h5.012m-2.506 2.507v-5.013m11.658 2.506h5.012m-2.506 2.507v-5.013m-2.506 2.506h5.012m-2.506 2.507v-5.013m11.658 2.506h5.012m-2.506 2.507v-5.013m-2.506 2.506h5.012m-2.506 2.507v-5.013m11.658 2.506h5.012m-2.506 2.507v-5.013m-2.506 2.506h5.012m-2.506 2.507v-5.013m11.658 2.506h5.012m-2.506 2.507v-5.013m-2.506 2.506h5.012m-2.506 2.507v-5.013m11.658 2.506h5.012m-2.506 2.507v-5.013m-2.506 2.506h5.012m-2.506 2.507v-5.013m11.658 2.506h5.012m-2.506 2.507v-5.013m-2.506 2.506h5.012m-2.506 2.507v-5.013m11.658 2.506h5.012m-2.506 2.507v-5.013m-2.506 2.506h5.012m-2.506 2.507v-5.013m11.658 2.506h5.012m-2.506 2.507v-5.013m-2.506 2.506h5.012m-2.506 2.507v-5.013m11.658 2.506h5.012m-2.506 2.507v-5.013m-2.506 2.506h5.012m-2.506 2.507v-5.013m11.658 2.506h5.012m-2.506 2.507v-5.013m-2.506 2.506h5.012m-2.506 2.507v-5.013m11.658 2.506h5.012m-2.506 2.507v-5.013m-2.506 2.506h5.012m-2.506 2.507v-5.013m11.657 2.506h5.013m-2.506 2.507v-5.013m-2.507 2.506h5.013m-2.506 2.507v-5.013m11.658 2.506h5.012m-2.506 2.507v-5.013m-2.506 2.506h5.012m-2.506 2.507v-5.013m11.657 2.506h5.013m-2.506 2.507v-5.013M0 115.173h5.012m-2.506 2.506v-5.012m11.658 2.506h5.012m-2.506 2.506v-5.012m-2.506 2.506h5.012m-2.506 2.506v-5.012m11.658 2.506h5.012m-2.506 2.506v-5.012m-2.506 2.506h5.012m-2.506 2.506v-5.012m11.658 2.506h5.012m-2.506 2.506v-5.012m-2.506 2.506h5.012m-2.506 2.506v-5.012m11.658 2.506h5.012m-2.506 2.506v-5.012m-2.506 2.506h5.012m-2.506 2.506v-5.012m11.658 2.506h5.012m-2.506 2.506v-5.012m-2.506 2.506h5.012m-2.506 2.506v-5.012m11.658 2.506h5.012m-2.506 2.506v-5.012m-2.506 2.506h5.012m-2.506 2.506v-5.012m11.658 2.506h5.012m-2.506 2.506v-5.012m-2.506 2.506h5.012m-2.506 2.506v-5.012m11.658 2.506h5.012m-2.506 2.506v-5.012m-2.506 2.506h5.012m-2.506 2.506v-5.012m11.658 2.506h5.012m-2.506 2.506v-5.012m-2.506 2.506h5.012m-2.506 2.506v-5.012m11.658 2.506h5.012m-2.506 2.506v-5.012m-2.506 2.506h5.012m-2.506 2.506v-5.012m11.657 2.506h5.013m-2.506 2.506v-5.012m-2.507 2.506h5.013m-2.506 2.506v-5.012m11.658 2.506h5.012m-2.506 2.506v-5.012m-2.506 2.506h5.012m-2.506 2.506v-5.012m11.657 2.506h5.013m-2.506 2.506v-5.012m-2.507 2.506h5.013m-2.506 2.506v-5.012m11.657 2.506h5.013m-2.506 2.506v-5.012m-2.507 2.506h5.013m-2.506 2.506v-5.012m11.657 2.506h5.013m-2.506 2.506v-5.012m-2.507 2.506h5.013m-2.506 2.506v-5.012m11.657 2.506h5.013m-2.507 2.506v-5.012m-2.506 2.506h5.013m-2.507 2.506v-5.012m11.658 2.506h5.013m-2.507 2.506v-5.012m-2.506 2.506h5.013m-2.507 2.506v-5.012m11.658 2.506h5.013m-2.507 2.506v-5.012m-2.506 2.506h5.013m-2.507 2.506v-5.012m11.658 2.506h5.013m-2.507 2.506v-5.012m-2.506 2.506h5.013m-2.507 2.506v-5.012m11.658 2.506h5.012m-2.506 2.506v-5.012m-2.506 2.506h5.012m-2.506 2.506v-5.012m11.658 2.506h5.013m-2.507 2.506v-5.012m-2.506 2.506h5.013m-2.507 2.506v-5.012m11.658 2.506h5.012m-2.506 2.506v-5.012m-2.506 2.506h5.012m-2.506 2.506v-5.012m11.658 2.506h5.012m-2.506 2.506v-5.012m-2.506 2.506h5.012m-2.506 2.506v-5.012m11.658 2.506h5.012m-2.506 2.506v-5.012m-2.506 2.506h5.012m-2.506 2.506v-5.012m11.658 2.506h5.012m-2.506 2.506v-5.012m-2.506 2.506h5.012m-2.506 2.506v-5.012m11.658 2.506h5.012m-2.506 2.506v-5.012m-2.506 2.506h5.012m-2.506 2.506v-5.012m11.658 2.506h5.012m-2.506 2.506v-5.012m-2.506 2.506h5.012m-2.506 2.506v-5.012m11.658 2.506h5.012m-2.506 2.506v-5.012m-2.506 2.506h5.012m-2.506 2.506v-5.012m11.658 2.506h5.012m-2.506 2.506v-5.012m-2.506 2.506h5.012m-2.506 2.506v-5.012m11.658 2.506h5.012m-2.506 2.506v-5.012m-2.506 2.506h5.012m-2.506 2.506v-5.012m11.658 2.506h5.012m-2.506 2.506v-5.012m-2.506 2.506h5.012m-2.506 2.506v-5.012m11.658 2.506h5.012m-2.506 2.506v-5.012m-2.506 2.506h5.012m-2.506 2.506v-5.012m11.658 2.506h5.012m-2.506 2.506v-5.012m-2.506 2.506h5.012m-2.506 2.506v-5.012m11.657 2.506h5.013m-2.506 2.506v-5.012m-2.507 2.506h5.013m-2.506 2.506v-5.012m11.658 2.506h5.012m-2.506 2.506v-5.012m-2.506 2.506h5.012m-2.506 2.506v-5.012m11.657 2.506h5.013m-2.506 2.506v-5.012M0 129.256h5.012m-2.506 2.506v-5.012m11.658 2.506h5.012m-2.506 2.506v-5.012m-2.506 2.506h5.012m-2.506 2.506v-5.012m11.658 2.506h5.012m-2.506 2.506v-5.012m-2.506 2.506h5.012m-2.506 2.506v-5.012m11.658 2.506h5.012m-2.506 2.506v-5.012m-2.506 2.506h5.012m-2.506 2.506v-5.012m11.658 2.506h5.012m-2.506 2.506v-5.012m-2.506 2.506h5.012m-2.506 2.506v-5.012m11.658 2.506h5.012m-2.506 2.506v-5.012m-2.506 2.506h5.012m-2.506 2.506v-5.012m11.658 2.506h5.012m-2.506 2.506v-5.012m-2.506 2.506h5.012m-2.506 2.506v-5.012m11.658 2.506h5.012m-2.506 2.506v-5.012m-2.506 2.506h5.012m-2.506 2.506v-5.012m11.658 2.506h5.012m-2.506 2.506v-5.012m-2.506 2.506h5.012m-2.506 2.506v-5.012m11.658 2.506h5.012m-2.506 2.506v-5.012m-2.506 2.506h5.012m-2.506 2.506v-5.012m11.658 2.506h5.012m-2.506 2.506v-5.012m-2.506 2.506h5.012m-2.506 2.506v-5.012m11.657 2.506h5.013m-2.506 2.506v-5.012m-2.507 2.506h5.013m-2.506 2.506v-5.012m11.658 2.506h5.012m-2.506 2.506v-5.012m-2.506 2.506h5.012m-2.506 2.506v-5.012m11.657 2.506h5.013m-2.506 2.506v-5.012m-2.507 2.506h5.013m-2.506 2.506v-5.012m11.657 2.506h5.013m-2.506 2.506v-5.012m-2.507 2.506h5.013m-2.506 2.506v-5.012m11.657 2.506h5.013m-2.506 2.506v-5.012m-2.507 2.506h5.013m-2.506 2.506v-5.012m11.657 2.506h5.013m-2.507 2.506v-5.012m-2.506 2.506h5.013m-2.507 2.506v-5.012m11.658 2.506h5.013m-2.507 2.506v-5.012m-2.506 2.506h5.013m-2.507 2.506v-5.012m11.658 2.506h5.013m-2.507 2.506v-5.012m-2.506 2.506h5.013m-2.507 2.506v-5.012m11.658 2.506h5.013m-2.507 2.506v-5.012m-2.506 2.506h5.013m-2.507 2.506v-5.012m11.658 2.506h5.012m-2.506 2.506v-5.012m-2.506 2.506h5.012m-2.506 2.506v-5.012m11.658 2.506h5.013m-2.507 2.506v-5.012m-2.506 2.506h5.013m-2.507 2.506v-5.012m11.658 2.506h5.012m-2.506 2.506v-5.012m-2.506 2.506h5.012m-2.506 2.506v-5.012m11.658 2.506h5.012m-2.506 2.506v-5.012m-2.506 2.506h5.012m-2.506 2.506v-5.012m11.658 2.506h5.012m-2.506 2.506v-5.012m-2.506 2.506h5.012m-2.506 2.506v-5.012m11.658 2.506h5.012m-2.506 2.506v-5.012m-2.506 2.506h5.012m-2.506 2.506v-5.012m11.658 2.506h5.012m-2.506 2.506v-5.012m-2.506 2.506h5.012m-2.506 2.506v-5.012m11.658 2.506h5.012m-2.506 2.506v-5.012m-2.506 2.506h5.012m-2.506 2.506v-5.012m11.658 2.506h5.012m-2.506 2.506v-5.012m-2.506 2.506h5.012m-2.506 2.506v-5.012m11.658 2.506h5.012m-2.506 2.506v-5.012m-2.506 2.506h5.012m-2.506 2.506v-5.012m11.658 2.506h5.012m-2.506 2.506v-5.012m-2.506 2.506h5.012m-2.506 2.506v-5.012m11.658 2.506h5.012m-2.506 2.506v-5.012m-2.506 2.506h5.012m-2.506 2.506v-5.012m11.658 2.506h5.012m-2.506 2.506v-5.012m-2.506 2.506h5.012m-2.506 2.506v-5.012m11.658 2.506h5.012m-2.506 2.506v-5.012m-2.506 2.506h5.012m-2.506 2.506v-5.012m11.657 2.506h5.013m-2.506 2.506v-5.012m-2.507 2.506h5.013m-2.506 2.506v-5.012m11.658 2.506h5.012m-2.506 2.506v-5.012m-2.506 2.506h5.012m-2.506 2.506v-5.012m11.657 2.506h5.013m-2.506 2.506v-5.012M0 143.339h5.012m-2.506 2.507v-5.013m11.658 2.506h5.012m-2.506 2.507v-5.013m-2.506 2.506h5.012m-2.506 2.507v-5.013m11.658 2.506h5.012m-2.506 2.507v-5.013m-2.506 2.506h5.012m-2.506 2.507v-5.013m11.658 2.506h5.012m-2.506 2.507v-5.013m-2.506 2.506h5.012m-2.506 2.507v-5.013m11.658 2.506h5.012m-2.506 2.507v-5.013m-2.506 2.506h5.012m-2.506 2.507v-5.013m11.658 2.506h5.012m-2.506 2.507v-5.013m-2.506 2.506h5.012m-2.506 2.507v-5.013m11.658 2.506h5.012m-2.506 2.507v-5.013m-2.506 2.506h5.012m-2.506 2.507v-5.013m11.658 2.506h5.012m-2.506 2.507v-5.013m-2.506 2.506h5.012m-2.506 2.507v-5.013m11.658 2.506h5.012m-2.506 2.507v-5.013m-2.506 2.506h5.012m-2.506 2.507v-5.013m11.658 2.506h5.012m-2.506 2.507v-5.013m-2.506 2.506h5.012m-2.506 2.507v-5.013m11.658 2.506h5.012m-2.506 2.507v-5.013m-2.506 2.506h5.012m-2.506 2.507v-5.013m11.657 2.506h5.013m-2.506 2.507v-5.013m-2.507 2.506h5.013m-2.506 2.507v-5.013m11.658 2.506h5.012m-2.506 2.507v-5.013m-2.506 2.506h5.012m-2.506 2.507v-5.013m11.657 2.506h5.013m-2.506 2.507v-5.013m-2.507 2.506h5.013m-2.506 2.507v-5.013m11.657 2.506h5.013m-2.506 2.507v-5.013m-2.507 2.506h5.013m-2.506 2.507v-5.013m11.657 2.506h5.013m-2.506 2.507v-5.013m-2.507 2.506h5.013m-2.506 2.507v-5.013m11.657 2.506h5.013m-2.507 2.507v-5.013m-2.506 2.506h5.013m-2.507 2.507v-5.013m11.658 2.506h5.013m-2.507 2.507v-5.013m-2.506 2.506h5.013m-2.507 2.507v-5.013m11.658 2.506h5.013m-2.507 2.507v-5.013m-2.506 2.506h5.013m-2.507 2.507v-5.013m11.658 2.506h5.013m-2.507 2.507v-5.013m-2.506 2.506h5.013m-2.507 2.507v-5.013m11.658 2.506h5.012m-2.506 2.507v-5.013m-2.506 2.506h5.012m-2.506 2.507v-5.013m11.658 2.506h5.013m-2.507 2.507v-5.013m-2.506 2.506h5.013m-2.507 2.507v-5.013m11.658 2.506h5.012m-2.506 2.507v-5.013m-2.506 2.506h5.012m-2.506 2.507v-5.013m11.658 2.506h5.012m-2.506 2.507v-5.013m-2.506 2.506h5.012m-2.506 2.507v-5.013m11.658 2.506h5.012m-2.506 2.507v-5.013m-2.506 2.506h5.012m-2.506 2.507v-5.013m11.658 2.506h5.012m-2.506 2.507v-5.013m-2.506 2.506h5.012m-2.506 2.507v-5.013m11.658 2.506h5.012m-2.506 2.507v-5.013m-2.506 2.506h5.012m-2.506 2.507v-5.013m11.658 2.506h5.012m-2.506 2.507v-5.013m-2.506 2.506h5.012m-2.506 2.507v-5.013m11.658 2.506h5.012m-2.506 2.507v-5.013m-2.506 2.506h5.012m-2.506 2.507v-5.013m11.658 2.506h5.012m-2.506 2.507v-5.013m-2.506 2.506h5.012m-2.506 2.507v-5.013m11.658 2.506h5.012m-2.506 2.507v-5.013m-2.506 2.506h5.012m-2.506 2.507v-5.013m11.658 2.506h5.012m-2.506 2.507v-5.013m-2.506 2.506h5.012m-2.506 2.507v-5.013m11.658 2.506h5.012m-2.506 2.507v-5.013m-2.506 2.506h5.012m-2.506 2.507v-5.013m11.658 2.506h5.012m-2.506 2.507v-5.013m-2.506 2.506h5.012m-2.506 2.507v-5.013m11.657 2.506h5.013m-2.506 2.507v-5.013m-2.507 2.506h5.013m-2.506 2.507v-5.013m11.658 2.506h5.012m-2.506 2.507v-5.013m-2.506 2.506h5.012m-2.506 2.507v-5.013m11.657 2.506h5.013m-2.506 2.507v-5.013M0 157.423h5.012m-2.506 2.506v-5.012m11.658 2.506h5.012m-2.506 2.506v-5.012m-2.506 2.506h5.012m-2.506 2.506v-5.012m11.658 2.506h5.012m-2.506 2.506v-5.012m-2.506 2.506h5.012m-2.506 2.506v-5.012m11.658 2.506h5.012m-2.506 2.506v-5.012m-2.506 2.506h5.012m-2.506 2.506v-5.012m11.658 2.506h5.012m-2.506 2.506v-5.012m-2.506 2.506h5.012m-2.506 2.506v-5.012m11.658 2.506h5.012m-2.506 2.506v-5.012m-2.506 2.506h5.012m-2.506 2.506v-5.012m11.658 2.506h5.012m-2.506 2.506v-5.012m-2.506 2.506h5.012m-2.506 2.506v-5.012m11.658 2.506h5.012m-2.506 2.506v-5.012m-2.506 2.506h5.012m-2.506 2.506v-5.012m11.658 2.506h5.012m-2.506 2.506v-5.012m-2.506 2.506h5.012m-2.506 2.506v-5.012m11.658 2.506h5.012m-2.506 2.506v-5.012m-2.506 2.506h5.012m-2.506 2.506v-5.012m11.658 2.506h5.012m-2.506 2.506v-5.012m-2.506 2.506h5.012m-2.506 2.506v-5.012m11.657 2.506h5.013m-2.506 2.506v-5.012m-2.507 2.506h5.013m-2.506 2.506v-5.012m11.658 2.506h5.012m-2.506 2.506v-5.012m-2.506 2.506h5.012m-2.506 2.506v-5.012m11.657 2.506h5.013m-2.506 2.506v-5.012m-2.507 2.506h5.013m-2.506 2.506v-5.012m11.657 2.506h5.013m-2.506 2.506v-5.012m-2.507 2.506h5.013m-2.506 2.506v-5.012m11.657 2.506h5.013m-2.506 2.506v-5.012m-2.507 2.506h5.013m-2.506 2.506v-5.012m11.657 2.506h5.013m-2.507 2.506v-5.012m-2.506 2.506h5.013m-2.507 2.506v-5.012m11.658 2.506h5.013m-2.507 2.506v-5.012m-2.506 2.506h5.013m-2.507 2.506v-5.012m11.658 2.506h5.013m-2.507 2.506v-5.012m-2.506 2.506h5.013m-2.507 2.506v-5.012m11.658 2.506h5.013m-2.507 2.506v-5.012m-2.506 2.506h5.013m-2.507 2.506v-5.012m11.658 2.506h5.012m-2.506 2.506v-5.012m-2.506 2.506h5.012m-2.506 2.506v-5.012m11.658 2.506h5.013m-2.507 2.506v-5.012m-2.506 2.506h5.013m-2.507 2.506v-5.012m11.658 2.506h5.012m-2.506 2.506v-5.012m-2.506 2.506h5.012m-2.506 2.506v-5.012m11.658 2.506h5.012m-2.506 2.506v-5.012m-2.506 2.506h5.012m-2.506 2.506v-5.012m11.658 2.506h5.012m-2.506 2.506v-5.012m-2.506 2.506h5.012m-2.506 2.506v-5.012m11.658 2.506h5.012m-2.506 2.506v-5.012m-2.506 2.506h5.012m-2.506 2.506v-5.012m11.658 2.506h5.012m-2.506 2.506v-5.012m-2.506 2.506h5.012m-2.506 2.506v-5.012m11.658 2.506h5.012m-2.506 2.506v-5.012m-2.506 2.506h5.012m-2.506 2.506v-5.012m11.658 2.506h5.012m-2.506 2.506v-5.012m-2.506 2.506h5.012m-2.506 2.506v-5.012m11.658 2.506h5.012m-2.506 2.506v-5.012m-2.506 2.506h5.012m-2.506 2.506v-5.012m11.658 2.506h5.012m-2.506 2.506v-5.012m-2.506 2.506h5.012m-2.506 2.506v-5.012m11.658 2.506h5.012m-2.506 2.506v-5.012m-2.506 2.506h5.012m-2.506 2.506v-5.012m11.658 2.506h5.012m-2.506 2.506v-5.012m-2.506 2.506h5.012m-2.506 2.506v-5.012m11.658 2.506h5.012m-2.506 2.506v-5.012m-2.506 2.506h5.012m-2.506 2.506v-5.012m11.657 2.506h5.013m-2.506 2.506v-5.012m-2.507 2.506h5.013m-2.506 2.506v-5.012m11.658 2.506h5.012m-2.506 2.506v-5.012m-2.506 2.506h5.012m-2.506 2.506v-5.012m11.657 2.506h5.013m-2.506 2.506v-5.012M0 171.506h5.012m-2.506 2.506V169m11.658 2.506h5.012m-2.506 2.506V169m-2.506 2.506h5.012m-2.506 2.506V169m11.658 2.506h5.012m-2.506 2.506V169m-2.506 2.506h5.012m-2.506 2.506V169m11.658 2.506h5.012m-2.506 2.506V169m-2.506 2.506h5.012m-2.506 2.506V169m11.658 2.506h5.012m-2.506 2.506V169m-2.506 2.506h5.012m-2.506 2.506V169m11.658 2.506h5.012m-2.506 2.506V169m-2.506 2.506h5.012m-2.506 2.506V169m11.658 2.506h5.012m-2.506 2.506V169m-2.506 2.506h5.012m-2.506 2.506V169m11.658 2.506h5.012m-2.506 2.506V169m-2.506 2.506h5.012m-2.506 2.506V169m11.658 2.506h5.012m-2.506 2.506V169m-2.506 2.506h5.012m-2.506 2.506V169m11.658 2.506h5.012m-2.506 2.506V169m-2.506 2.506h5.012m-2.506 2.506V169m11.658 2.506h5.012m-2.506 2.506V169m-2.506 2.506h5.012m-2.506 2.506V169m11.657 2.506h5.013m-2.506 2.506V169m-2.507 2.506h5.013m-2.506 2.506V169m11.658 2.506h5.012m-2.506 2.506V169m-2.506 2.506h5.012m-2.506 2.506V169m11.657 2.506h5.013m-2.506 2.506V169m-2.507 2.506h5.013m-2.506 2.506V169m11.657 2.506h5.013m-2.506 2.506V169m-2.507 2.506h5.013m-2.506 2.506V169m11.657 2.506h5.013m-2.506 2.506V169m-2.507 2.506h5.013m-2.506 2.506V169m11.657 2.506h5.013m-2.507 2.506V169m-2.506 2.506h5.013m-2.507 2.506V169m11.658 2.506h5.013m-2.507 2.506V169m-2.506 2.506h5.013m-2.507 2.506V169m11.658 2.506h5.013m-2.507 2.506V169m-2.506 2.506h5.013m-2.507 2.506V169m11.658 2.506h5.013m-2.507 2.506V169m-2.506 2.506h5.013m-2.507 2.506V169m11.658 2.506h5.012m-2.506 2.506V169m-2.506 2.506h5.012m-2.506 2.506V169m11.658 2.506h5.013m-2.507 2.506V169m-2.506 2.506h5.013m-2.507 2.506V169m11.658 2.506h5.012m-2.506 2.506V169m-2.506 2.506h5.012m-2.506 2.506V169m11.658 2.506h5.012m-2.506 2.506V169m-2.506 2.506h5.012m-2.506 2.506V169m11.658 2.506h5.012m-2.506 2.506V169m-2.506 2.506h5.012m-2.506 2.506V169m11.658 2.506h5.012m-2.506 2.506V169m-2.506 2.506h5.012m-2.506 2.506V169m11.658 2.506h5.012m-2.506 2.506V169m-2.506 2.506h5.012m-2.506 2.506V169m11.658 2.506h5.012m-2.506 2.506V169m-2.506 2.506h5.012m-2.506 2.506V169m11.658 2.506h5.012m-2.506 2.506V169m-2.506 2.506h5.012m-2.506 2.506V169m11.658 2.506h5.012m-2.506 2.506V169m-2.506 2.506h5.012m-2.506 2.506V169m11.658 2.506h5.012m-2.506 2.506V169m-2.506 2.506h5.012m-2.506 2.506V169m11.658 2.506h5.012m-2.506 2.506V169m-2.506 2.506h5.012m-2.506 2.506V169m11.658 2.506h5.012m-2.506 2.506V169m-2.506 2.506h5.012m-2.506 2.506V169m11.658 2.506h5.012m-2.506 2.506V169m-2.506 2.506h5.012m-2.506 2.506V169m11.657 2.506h5.013m-2.506 2.506V169m-2.507 2.506h5.013m-2.506 2.506V169m11.658 2.506h5.012m-2.506 2.506V169m-2.506 2.506h5.012m-2.506 2.506V169m11.657 2.506h5.013m-2.506 2.506V169M0 185.589h5.012m-2.506 2.507v-5.013m11.658 2.506h5.012m-2.506 2.507v-5.013m-2.506 2.506h5.012m-2.506 2.507v-5.013m11.658 2.506h5.012m-2.506 2.507v-5.013m-2.506 2.506h5.012m-2.506 2.507v-5.013m11.658 2.506h5.012m-2.506 2.507v-5.013m-2.506 2.506h5.012m-2.506 2.507v-5.013m11.658 2.506h5.012m-2.506 2.507v-5.013m-2.506 2.506h5.012m-2.506 2.507v-5.013m11.658 2.506h5.012m-2.506 2.507v-5.013m-2.506 2.506h5.012m-2.506 2.507v-5.013m11.658 2.506h5.012m-2.506 2.507v-5.013m-2.506 2.506h5.012m-2.506 2.507v-5.013m11.658 2.506h5.012m-2.506 2.507v-5.013m-2.506 2.506h5.012m-2.506 2.507v-5.013m11.658 2.506h5.012m-2.506 2.507v-5.013m-2.506 2.506h5.012m-2.506 2.507v-5.013m11.658 2.506h5.012m-2.506 2.507v-5.013m-2.506 2.506h5.012m-2.506 2.507v-5.013m11.658 2.506h5.012m-2.506 2.507v-5.013m-2.506 2.506h5.012m-2.506 2.507v-5.013m11.657 2.506h5.013m-2.506 2.507v-5.013m-2.507 2.506h5.013m-2.506 2.507v-5.013m11.658 2.506h5.012m-2.506 2.507v-5.013m-2.506 2.506h5.012m-2.506 2.507v-5.013m11.657 2.506h5.013m-2.506 2.507v-5.013m-2.507 2.506h5.013m-2.506 2.507v-5.013m11.657 2.506h5.013m-2.506 2.507v-5.013m-2.507 2.506h5.013m-2.506 2.507v-5.013m11.657 2.506h5.013m-2.506 2.507v-5.013m-2.507 2.506h5.013m-2.506 2.507v-5.013m11.657 2.506h5.013m-2.507 2.507v-5.013m-2.506 2.506h5.013m-2.507 2.507v-5.013m11.658 2.506h5.013m-2.507 2.507v-5.013m-2.506 2.506h5.013m-2.507 2.507v-5.013m11.658 2.506h5.013m-2.507 2.507v-5.013m-2.506 2.506h5.013m-2.507 2.507v-5.013m11.658 2.506h5.013m-2.507 2.507v-5.013m-2.506 2.506h5.013m-2.507 2.507v-5.013m11.658 2.506h5.012m-2.506 2.507v-5.013m-2.506 2.506h5.012m-2.506 2.507v-5.013m11.658 2.506h5.013m-2.507 2.507v-5.013m-2.506 2.506h5.013m-2.507 2.507v-5.013m11.658 2.506h5.012m-2.506 2.507v-5.013m-2.506 2.506h5.012m-2.506 2.507v-5.013m11.658 2.506h5.012m-2.506 2.507v-5.013m-2.506 2.506h5.012m-2.506 2.507v-5.013m11.658 2.506h5.012m-2.506 2.507v-5.013m-2.506 2.506h5.012m-2.506 2.507v-5.013m11.658 2.506h5.012m-2.506 2.507v-5.013m-2.506 2.506h5.012m-2.506 2.507v-5.013m11.658 2.506h5.012m-2.506 2.507v-5.013m-2.506 2.506h5.012m-2.506 2.507v-5.013m11.658 2.506h5.012m-2.506 2.507v-5.013m-2.506 2.506h5.012m-2.506 2.507v-5.013m11.658 2.506h5.012m-2.506 2.507v-5.013m-2.506 2.506h5.012m-2.506 2.507v-5.013m11.658 2.506h5.012m-2.506 2.507v-5.013m-2.506 2.506h5.012m-2.506 2.507v-5.013m11.658 2.506h5.012m-2.506 2.507v-5.013m-2.506 2.506h5.012m-2.506 2.507v-5.013m11.658 2.506h5.012m-2.506 2.507v-5.013m-2.506 2.506h5.012m-2.506 2.507v-5.013m11.658 2.506h5.012m-2.506 2.507v-5.013m-2.506 2.506h5.012m-2.506 2.507v-5.013m11.658 2.506h5.012m-2.506 2.507v-5.013m-2.506 2.506h5.012m-2.506 2.507v-5.013m11.657 2.506h5.013m-2.506 2.507v-5.013m-2.507 2.506h5.013m-2.506 2.507v-5.013m11.658 2.506h5.012m-2.506 2.507v-5.013m-2.506 2.506h5.012m-2.506 2.507v-5.013m11.657 2.506h5.013m-2.506 2.507v-5.013M0 199.673h5.012m-2.506 2.506v-5.012m11.658 2.506h5.012m-2.506 2.506v-5.012m-2.506 2.506h5.012m-2.506 2.506v-5.012m11.658 2.506h5.012m-2.506 2.506v-5.012m-2.506 2.506h5.012m-2.506 2.506v-5.012m11.658 2.506h5.012m-2.506 2.506v-5.012m-2.506 2.506h5.012m-2.506 2.506v-5.012m11.658 2.506h5.012m-2.506 2.506v-5.012m-2.506 2.506h5.012m-2.506 2.506v-5.012m11.658 2.506h5.012m-2.506 2.506v-5.012m-2.506 2.506h5.012m-2.506 2.506v-5.012m11.658 2.506h5.012m-2.506 2.506v-5.012m-2.506 2.506h5.012m-2.506 2.506v-5.012m11.658 2.506h5.012m-2.506 2.506v-5.012m-2.506 2.506h5.012m-2.506 2.506v-5.012m11.658 2.506h5.012m-2.506 2.506v-5.012m-2.506 2.506h5.012m-2.506 2.506v-5.012m11.658 2.506h5.012m-2.506 2.506v-5.012m-2.506 2.506h5.012m-2.506 2.506v-5.012m11.658 2.506h5.012m-2.506 2.506v-5.012m-2.506 2.506h5.012m-2.506 2.506v-5.012m11.657 2.506h5.013m-2.506 2.506v-5.012m-2.507 2.506h5.013m-2.506 2.506v-5.012m11.658 2.506h5.012m-2.506 2.506v-5.012m-2.506 2.506h5.012m-2.506 2.506v-5.012m11.657 2.506h5.013m-2.506 2.506v-5.012m-2.507 2.506h5.013m-2.506 2.506v-5.012m11.657 2.506h5.013m-2.506 2.506v-5.012m-2.507 2.506h5.013m-2.506 2.506v-5.012m11.657 2.506h5.013m-2.506 2.506v-5.012m-2.507 2.506h5.013m-2.506 2.506v-5.012m11.657 2.506h5.013m-2.507 2.506v-5.012m-2.506 2.506h5.013m-2.507 2.506v-5.012m11.658 2.506h5.013m-2.507 2.506v-5.012m-2.506 2.506h5.013m-2.507 2.506v-5.012m11.658 2.506h5.013m-2.507 2.506v-5.012m-2.506 2.506h5.013m-2.507 2.506v-5.012m11.658 2.506h5.013m-2.507 2.506v-5.012m-2.506 2.506h5.013m-2.507 2.506v-5.012m11.658 2.506h5.012m-2.506 2.506v-5.012m-2.506 2.506h5.012m-2.506 2.506v-5.012m11.658 2.506h5.013m-2.507 2.506v-5.012m-2.506 2.506h5.013m-2.507 2.506v-5.012m11.658 2.506h5.012m-2.506 2.506v-5.012m-2.506 2.506h5.012m-2.506 2.506v-5.012m11.658 2.506h5.012m-2.506 2.506v-5.012m-2.506 2.506h5.012m-2.506 2.506v-5.012m11.658 2.506h5.012m-2.506 2.506v-5.012m-2.506 2.506h5.012m-2.506 2.506v-5.012m11.658 2.506h5.012m-2.506 2.506v-5.012m-2.506 2.506h5.012m-2.506 2.506v-5.012m11.658 2.506h5.012m-2.506 2.506v-5.012m-2.506 2.506h5.012m-2.506 2.506v-5.012m11.658 2.506h5.012m-2.506 2.506v-5.012m-2.506 2.506h5.012m-2.506 2.506v-5.012m11.658 2.506h5.012m-2.506 2.506v-5.012m-2.506 2.506h5.012m-2.506 2.506v-5.012m11.658 2.506h5.012m-2.506 2.506v-5.012m-2.506 2.506h5.012m-2.506 2.506v-5.012m11.658 2.506h5.012m-2.506 2.506v-5.012m-2.506 2.506h5.012m-2.506 2.506v-5.012m11.658 2.506h5.012m-2.506 2.506v-5.012m-2.506 2.506h5.012m-2.506 2.506v-5.012m11.658 2.506h5.012m-2.506 2.506v-5.012m-2.506 2.506h5.012m-2.506 2.506v-5.012m11.658 2.506h5.012m-2.506 2.506v-5.012m-2.506 2.506h5.012m-2.506 2.506v-5.012m11.657 2.506h5.013m-2.506 2.506v-5.012m-2.507 2.506h5.013m-2.506 2.506v-5.012m11.658 2.506h5.012m-2.506 2.506v-5.012m-2.506 2.506h5.012m-2.506 2.506v-5.012m11.657 2.506h5.013m-2.506 2.506v-5.012M0 213.756h5.012m-2.506 2.506v-5.012m11.658 2.506h5.012m-2.506 2.506v-5.012m-2.506 2.506h5.012m-2.506 2.506v-5.012m11.658 2.506h5.012m-2.506 2.506v-5.012m-2.506 2.506h5.012m-2.506 2.506v-5.012m11.658 2.506h5.012m-2.506 2.506v-5.012m-2.506 2.506h5.012m-2.506 2.506v-5.012m11.658 2.506h5.012m-2.506 2.506v-5.012m-2.506 2.506h5.012m-2.506 2.506v-5.012m11.658 2.506h5.012m-2.506 2.506v-5.012m-2.506 2.506h5.012m-2.506 2.506v-5.012m11.658 2.506h5.012m-2.506 2.506v-5.012m-2.506 2.506h5.012m-2.506 2.506v-5.012m11.658 2.506h5.012m-2.506 2.506v-5.012m-2.506 2.506h5.012m-2.506 2.506v-5.012m11.658 2.506h5.012m-2.506 2.506v-5.012m-2.506 2.506h5.012m-2.506 2.506v-5.012m11.658 2.506h5.012m-2.506 2.506v-5.012m-2.506 2.506h5.012m-2.506 2.506v-5.012m11.658 2.506h5.012m-2.506 2.506v-5.012m-2.506 2.506h5.012m-2.506 2.506v-5.012m11.657 2.506h5.013m-2.506 2.506v-5.012m-2.507 2.506h5.013m-2.506 2.506v-5.012m11.658 2.506h5.012m-2.506 2.506v-5.012m-2.506 2.506h5.012m-2.506 2.506v-5.012m11.657 2.506h5.013m-2.506 2.506v-5.012m-2.507 2.506h5.013m-2.506 2.506v-5.012m11.657 2.506h5.013m-2.506 2.506v-5.012m-2.507 2.506h5.013m-2.506 2.506v-5.012m11.657 2.506h5.013m-2.506 2.506v-5.012m-2.507 2.506h5.013m-2.506 2.506v-5.012m11.657 2.506h5.013m-2.507 2.506v-5.012m-2.506 2.506h5.013m-2.507 2.506v-5.012m11.658 2.506h5.013m-2.507 2.506v-5.012m-2.506 2.506h5.013m-2.507 2.506v-5.012m11.658 2.506h5.013m-2.507 2.506v-5.012m-2.506 2.506h5.013m-2.507 2.506v-5.012m11.658 2.506h5.013m-2.507 2.506v-5.012m-2.506 2.506h5.013m-2.507 2.506v-5.012m11.658 2.506h5.012m-2.506 2.506v-5.012m-2.506 2.506h5.012m-2.506 2.506v-5.012m11.658 2.506h5.013m-2.507 2.506v-5.012m-2.506 2.506h5.013m-2.507 2.506v-5.012m11.658 2.506h5.012m-2.506 2.506v-5.012m-2.506 2.506h5.012m-2.506 2.506v-5.012m11.658 2.506h5.012m-2.506 2.506v-5.012m-2.506 2.506h5.012m-2.506 2.506v-5.012m11.658 2.506h5.012m-2.506 2.506v-5.012m-2.506 2.506h5.012m-2.506 2.506v-5.012m11.658 2.506h5.012m-2.506 2.506v-5.012m-2.506 2.506h5.012m-2.506 2.506v-5.012m11.658 2.506h5.012m-2.506 2.506v-5.012m-2.506 2.506h5.012m-2.506 2.506v-5.012m11.658 2.506h5.012m-2.506 2.506v-5.012m-2.506 2.506h5.012m-2.506 2.506v-5.012m11.658 2.506h5.012m-2.506 2.506v-5.012m-2.506 2.506h5.012m-2.506 2.506v-5.012m11.658 2.506h5.012m-2.506 2.506v-5.012m-2.506 2.506h5.012m-2.506 2.506v-5.012m11.658 2.506h5.012m-2.506 2.506v-5.012m-2.506 2.506h5.012m-2.506 2.506v-5.012m11.658 2.506h5.012m-2.506 2.506v-5.012m-2.506 2.506h5.012m-2.506 2.506v-5.012m11.658 2.506h5.012m-2.506 2.506v-5.012m-2.506 2.506h5.012m-2.506 2.506v-5.012m11.658 2.506h5.012m-2.506 2.506v-5.012m-2.506 2.506h5.012m-2.506 2.506v-5.012m11.657 2.506h5.013m-2.506 2.506v-5.012m-2.507 2.506h5.013m-2.506 2.506v-5.012m11.658 2.506h5.012m-2.506 2.506v-5.012m-2.506 2.506h5.012m-2.506 2.506v-5.012m11.657 2.506h5.013m-2.506 2.506v-5.012M0 227.839h5.012m-2.506 2.507v-5.013m11.658 2.506h5.012m-2.506 2.507v-5.013m-2.506 2.506h5.012m-2.506 2.507v-5.013m11.658 2.506h5.012m-2.506 2.507v-5.013m-2.506 2.506h5.012m-2.506 2.507v-5.013m11.658 2.506h5.012m-2.506 2.507v-5.013m-2.506 2.506h5.012m-2.506 2.507v-5.013m11.658 2.506h5.012m-2.506 2.507v-5.013m-2.506 2.506h5.012m-2.506 2.507v-5.013m11.658 2.506h5.012m-2.506 2.507v-5.013m-2.506 2.506h5.012m-2.506 2.507v-5.013m11.658 2.506h5.012m-2.506 2.507v-5.013m-2.506 2.506h5.012m-2.506 2.507v-5.013m11.658 2.506h5.012m-2.506 2.507v-5.013m-2.506 2.506h5.012m-2.506 2.507v-5.013m11.658 2.506h5.012m-2.506 2.507v-5.013m-2.506 2.506h5.012m-2.506 2.507v-5.013m11.658 2.506h5.012m-2.506 2.507v-5.013m-2.506 2.506h5.012m-2.506 2.507v-5.013m11.658 2.506h5.012m-2.506 2.507v-5.013m-2.506 2.506h5.012m-2.506 2.507v-5.013m11.657 2.506h5.013m-2.506 2.507v-5.013m-2.507 2.506h5.013m-2.506 2.507v-5.013m11.658 2.506h5.012m-2.506 2.507v-5.013m-2.506 2.506h5.012m-2.506 2.507v-5.013m11.657 2.506h5.013m-2.506 2.507v-5.013m-2.507 2.506h5.013m-2.506 2.507v-5.013m11.657 2.506h5.013m-2.506 2.507v-5.013m-2.507 2.506h5.013m-2.506 2.507v-5.013m11.657 2.506h5.013m-2.506 2.507v-5.013m-2.507 2.506h5.013m-2.506 2.507v-5.013m11.657 2.506h5.013m-2.507 2.507v-5.013m-2.506 2.506h5.013m-2.507 2.507v-5.013m11.658 2.506h5.013m-2.507 2.507v-5.013m-2.506 2.506h5.013m-2.507 2.507v-5.013m11.658 2.506h5.013m-2.507 2.507v-5.013m-2.506 2.506h5.013m-2.507 2.507v-5.013m11.658 2.506h5.013m-2.507 2.507v-5.013m-2.506 2.506h5.013m-2.507 2.507v-5.013m11.658 2.506h5.012m-2.506 2.507v-5.013m-2.506 2.506h5.012m-2.506 2.507v-5.013m11.658 2.506h5.013m-2.507 2.507v-5.013m-2.506 2.506h5.013m-2.507 2.507v-5.013m11.658 2.506h5.012m-2.506 2.507v-5.013m-2.506 2.506h5.012m-2.506 2.507v-5.013m11.658 2.506h5.012m-2.506 2.507v-5.013m-2.506 2.506h5.012m-2.506 2.507v-5.013m11.658 2.506h5.012m-2.506 2.507v-5.013m-2.506 2.506h5.012m-2.506 2.507v-5.013m11.658 2.506h5.012m-2.506 2.507v-5.013m-2.506 2.506h5.012m-2.506 2.507v-5.013m11.658 2.506h5.012m-2.506 2.507v-5.013m-2.506 2.506h5.012m-2.506 2.507v-5.013m11.658 2.506h5.012m-2.506 2.507v-5.013m-2.506 2.506h5.012m-2.506 2.507v-5.013m11.658 2.506h5.012m-2.506 2.507v-5.013m-2.506 2.506h5.012m-2.506 2.507v-5.013m11.658 2.506h5.012m-2.506 2.507v-5.013m-2.506 2.506h5.012m-2.506 2.507v-5.013m11.658 2.506h5.012m-2.506 2.507v-5.013m-2.506 2.506h5.012m-2.506 2.507v-5.013m11.658 2.506h5.012m-2.506 2.507v-5.013m-2.506 2.506h5.012m-2.506 2.507v-5.013m11.658 2.506h5.012m-2.506 2.507v-5.013m-2.506 2.506h5.012m-2.506 2.507v-5.013m11.658 2.506h5.012m-2.506 2.507v-5.013m-2.506 2.506h5.012m-2.506 2.507v-5.013m11.657 2.506h5.013m-2.506 2.507v-5.013m-2.507 2.506h5.013m-2.506 2.507v-5.013m11.658 2.506h5.012m-2.506 2.507v-5.013m-2.506 2.506h5.012m-2.506 2.507v-5.013m11.657 2.506h5.013m-2.506 2.507v-5.013M0 241.923h5.012m-2.506 2.506v-5.012m11.658 2.506h5.012m-2.506 2.506v-5.012m-2.506 2.506h5.012m-2.506 2.506v-5.012m11.658 2.506h5.012m-2.506 2.506v-5.012m-2.506 2.506h5.012m-2.506 2.506v-5.012m11.658 2.506h5.012m-2.506 2.506v-5.012m-2.506 2.506h5.012m-2.506 2.506v-5.012m11.658 2.506h5.012m-2.506 2.506v-5.012m-2.506 2.506h5.012m-2.506 2.506v-5.012m11.658 2.506h5.012m-2.506 2.506v-5.012m-2.506 2.506h5.012m-2.506 2.506v-5.012m11.658 2.506h5.012m-2.506 2.506v-5.012m-2.506 2.506h5.012m-2.506 2.506v-5.012m11.658 2.506h5.012m-2.506 2.506v-5.012m-2.506 2.506h5.012m-2.506 2.506v-5.012m11.658 2.506h5.012m-2.506 2.506v-5.012m-2.506 2.506h5.012m-2.506 2.506v-5.012m11.658 2.506h5.012m-2.506 2.506v-5.012m-2.506 2.506h5.012m-2.506 2.506v-5.012m11.658 2.506h5.012m-2.506 2.506v-5.012m-2.506 2.506h5.012m-2.506 2.506v-5.012m11.657 2.506h5.013m-2.506 2.506v-5.012m-2.507 2.506h5.013m-2.506 2.506v-5.012m11.658 2.506h5.012m-2.506 2.506v-5.012m-2.506 2.506h5.012m-2.506 2.506v-5.012m11.657 2.506h5.013m-2.506 2.506v-5.012m-2.507 2.506h5.013m-2.506 2.506v-5.012m11.657 2.506h5.013m-2.506 2.506v-5.012m-2.507 2.506h5.013m-2.506 2.506v-5.012m11.657 2.506h5.013m-2.506 2.506v-5.012m-2.507 2.506h5.013m-2.506 2.506v-5.012m11.657 2.506h5.013m-2.507 2.506v-5.012m-2.506 2.506h5.013m-2.507 2.506v-5.012m11.658 2.506h5.013m-2.507 2.506v-5.012m-2.506 2.506h5.013m-2.507 2.506v-5.012m11.658 2.506h5.013m-2.507 2.506v-5.012m-2.506 2.506h5.013m-2.507 2.506v-5.012m11.658 2.506h5.013m-2.507 2.506v-5.012m-2.506 2.506h5.013m-2.507 2.506v-5.012m11.658 2.506h5.012m-2.506 2.506v-5.012m-2.506 2.506h5.012m-2.506 2.506v-5.012m11.658 2.506h5.013m-2.507 2.506v-5.012m-2.506 2.506h5.013m-2.507 2.506v-5.012m11.658 2.506h5.012m-2.506 2.506v-5.012m-2.506 2.506h5.012m-2.506 2.506v-5.012m11.658 2.506h5.012m-2.506 2.506v-5.012m-2.506 2.506h5.012m-2.506 2.506v-5.012m11.658 2.506h5.012m-2.506 2.506v-5.012m-2.506 2.506h5.012m-2.506 2.506v-5.012m11.658 2.506h5.012m-2.506 2.506v-5.012m-2.506 2.506h5.012m-2.506 2.506v-5.012m11.658 2.506h5.012m-2.506 2.506v-5.012m-2.506 2.506h5.012m-2.506 2.506v-5.012m11.658 2.506h5.012m-2.506 2.506v-5.012m-2.506 2.506h5.012m-2.506 2.506v-5.012m11.658 2.506h5.012m-2.506 2.506v-5.012m-2.506 2.506h5.012m-2.506 2.506v-5.012m11.658 2.506h5.012m-2.506 2.506v-5.012m-2.506 2.506h5.012m-2.506 2.506v-5.012m11.658 2.506h5.012m-2.506 2.506v-5.012m-2.506 2.506h5.012m-2.506 2.506v-5.012m11.658 2.506h5.012m-2.506 2.506v-5.012m-2.506 2.506h5.012m-2.506 2.506v-5.012m11.658 2.506h5.012m-2.506 2.506v-5.012m-2.506 2.506h5.012m-2.506 2.506v-5.012m11.658 2.506h5.012m-2.506 2.506v-5.012m-2.506 2.506h5.012m-2.506 2.506v-5.012m11.657 2.506h5.013m-2.506 2.506v-5.012m-2.507 2.506h5.013m-2.506 2.506v-5.012m11.658 2.506h5.012m-2.506 2.506v-5.012m-2.506 2.506h5.012m-2.506 2.506v-5.012m11.657 2.506h5.013m-2.506 2.506v-5.012M0 256.006h5.012m-2.506 2.506V253.5m11.658 2.506h5.012m-2.506 2.506V253.5m-2.506 2.506h5.012m-2.506 2.506V253.5m11.658 2.506h5.012m-2.506 2.506V253.5m-2.506 2.506h5.012m-2.506 2.506V253.5m11.658 2.506h5.012m-2.506 2.506V253.5m-2.506 2.506h5.012m-2.506 2.506V253.5m11.658 2.506h5.012m-2.506 2.506V253.5m-2.506 2.506h5.012m-2.506 2.506V253.5m11.658 2.506h5.012m-2.506 2.506V253.5m-2.506 2.506h5.012m-2.506 2.506V253.5m11.658 2.506h5.012m-2.506 2.506V253.5m-2.506 2.506h5.012m-2.506 2.506V253.5m11.658 2.506h5.012m-2.506 2.506V253.5m-2.506 2.506h5.012m-2.506 2.506V253.5m11.658 2.506h5.012m-2.506 2.506V253.5m-2.506 2.506h5.012m-2.506 2.506V253.5m11.658 2.506h5.012m-2.506 2.506V253.5m-2.506 2.506h5.012m-2.506 2.506V253.5m11.658 2.506h5.012m-2.506 2.506V253.5m-2.506 2.506h5.012m-2.506 2.506V253.5m11.657 2.506h5.013m-2.506 2.506V253.5m-2.507 2.506h5.013m-2.506 2.506V253.5m11.658 2.506h5.012m-2.506 2.506V253.5m-2.506 2.506h5.012m-2.506 2.506V253.5m11.657 2.506h5.013m-2.506 2.506V253.5m-2.507 2.506h5.013m-2.506 2.506V253.5m11.657 2.506h5.013m-2.506 2.506V253.5m-2.507 2.506h5.013m-2.506 2.506V253.5m11.657 2.506h5.013m-2.506 2.506V253.5m-2.507 2.506h5.013m-2.506 2.506V253.5m11.657 2.506h5.013m-2.507 2.506V253.5m-2.506 2.506h5.013m-2.507 2.506V253.5m11.658 2.506h5.013m-2.507 2.506V253.5m-2.506 2.506h5.013m-2.507 2.506V253.5m11.658 2.506h5.013m-2.507 2.506V253.5m-2.506 2.506h5.013m-2.507 2.506V253.5m11.658 2.506h5.013m-2.507 2.506V253.5m-2.506 2.506h5.013m-2.507 2.506V253.5m11.658 2.506h5.012m-2.506 2.506V253.5m-2.506 2.506h5.012m-2.506 2.506V253.5m11.658 2.506h5.013m-2.507 2.506V253.5m-2.506 2.506h5.013m-2.507 2.506V253.5m11.658 2.506h5.012m-2.506 2.506V253.5m-2.506 2.506h5.012m-2.506 2.506V253.5m11.658 2.506h5.012m-2.506 2.506V253.5m-2.506 2.506h5.012m-2.506 2.506V253.5m11.658 2.506h5.012m-2.506 2.506V253.5m-2.506 2.506h5.012m-2.506 2.506V253.5m11.658 2.506h5.012m-2.506 2.506V253.5m-2.506 2.506h5.012m-2.506 2.506V253.5m11.658 2.506h5.012m-2.506 2.506V253.5m-2.506 2.506h5.012m-2.506 2.506V253.5m11.658 2.506h5.012m-2.506 2.506V253.5m-2.506 2.506h5.012m-2.506 2.506V253.5m11.658 2.506h5.012m-2.506 2.506V253.5m-2.506 2.506h5.012m-2.506 2.506V253.5m11.658 2.506h5.012m-2.506 2.506V253.5m-2.506 2.506h5.012m-2.506 2.506V253.5m11.658 2.506h5.012m-2.506 2.506V253.5m-2.506 2.506h5.012m-2.506 2.506V253.5m11.658 2.506h5.012m-2.506 2.506V253.5m-2.506 2.506h5.012m-2.506 2.506V253.5m11.658 2.506h5.012m-2.506 2.506V253.5m-2.506 2.506h5.012m-2.506 2.506V253.5m11.658 2.506h5.012m-2.506 2.506V253.5m-2.506 2.506h5.012m-2.506 2.506V253.5m11.657 2.506h5.013m-2.506 2.506V253.5m-2.507 2.506h5.013m-2.506 2.506V253.5m11.658 2.506h5.012m-2.506 2.506V253.5m-2.506 2.506h5.012m-2.506 2.506V253.5m11.657 2.506h5.013m-2.506 2.506V253.5M0 270.089h5.012m-2.506 2.507v-5.013m11.658 2.506h5.012m-2.506 2.507v-5.013m-2.506 2.506h5.012m-2.506 2.507v-5.013m11.658 2.506h5.012m-2.506 2.507v-5.013m-2.506 2.506h5.012m-2.506 2.507v-5.013m11.658 2.506h5.012m-2.506 2.507v-5.013m-2.506 2.506h5.012m-2.506 2.507v-5.013m11.658 2.506h5.012m-2.506 2.507v-5.013m-2.506 2.506h5.012m-2.506 2.507v-5.013m11.658 2.506h5.012m-2.506 2.507v-5.013m-2.506 2.506h5.012m-2.506 2.507v-5.013m11.658 2.506h5.012m-2.506 2.507v-5.013m-2.506 2.506h5.012m-2.506 2.507v-5.013m11.658 2.506h5.012m-2.506 2.507v-5.013m-2.506 2.506h5.012m-2.506 2.507v-5.013m11.658 2.506h5.012m-2.506 2.507v-5.013m-2.506 2.506h5.012m-2.506 2.507v-5.013m11.658 2.506h5.012m-2.506 2.507v-5.013m-2.506 2.506h5.012m-2.506 2.507v-5.013m11.658 2.506h5.012m-2.506 2.507v-5.013m-2.506 2.506h5.012m-2.506 2.507v-5.013m11.657 2.506h5.013m-2.506 2.507v-5.013m-2.507 2.506h5.013m-2.506 2.507v-5.013m11.658 2.506h5.012m-2.506 2.507v-5.013m-2.506 2.506h5.012m-2.506 2.507v-5.013m11.657 2.506h5.013m-2.506 2.507v-5.013m-2.507 2.506h5.013m-2.506 2.507v-5.013m11.657 2.506h5.013m-2.506 2.507v-5.013m-2.507 2.506h5.013m-2.506 2.507v-5.013m11.657 2.506h5.013m-2.506 2.507v-5.013m-2.507 2.506h5.013m-2.506 2.507v-5.013m11.657 2.506h5.013m-2.507 2.507v-5.013m-2.506 2.506h5.013m-2.507 2.507v-5.013m11.658 2.506h5.013m-2.507 2.507v-5.013m-2.506 2.506h5.013m-2.507 2.507v-5.013m11.658 2.506h5.013m-2.507 2.507v-5.013m-2.506 2.506h5.013m-2.507 2.507v-5.013m11.658 2.506h5.013m-2.507 2.507v-5.013m-2.506 2.506h5.013m-2.507 2.507v-5.013m11.658 2.506h5.012m-2.506 2.507v-5.013m-2.506 2.506h5.012m-2.506 2.507v-5.013m11.658 2.506h5.013m-2.507 2.507v-5.013m-2.506 2.506h5.013m-2.507 2.507v-5.013m11.658 2.506h5.012m-2.506 2.507v-5.013m-2.506 2.506h5.012m-2.506 2.507v-5.013m11.658 2.506h5.012m-2.506 2.507v-5.013m-2.506 2.506h5.012m-2.506 2.507v-5.013m11.658 2.506h5.012m-2.506 2.507v-5.013m-2.506 2.506h5.012m-2.506 2.507v-5.013m11.658 2.506h5.012m-2.506 2.507v-5.013m-2.506 2.506h5.012m-2.506 2.507v-5.013m11.658 2.506h5.012m-2.506 2.507v-5.013m-2.506 2.506h5.012m-2.506 2.507v-5.013m11.658 2.506h5.012m-2.506 2.507v-5.013m-2.506 2.506h5.012m-2.506 2.507v-5.013m11.658 2.506h5.012m-2.506 2.507v-5.013m-2.506 2.506h5.012m-2.506 2.507v-5.013m11.658 2.506h5.012m-2.506 2.507v-5.013m-2.506 2.506h5.012m-2.506 2.507v-5.013m11.658 2.506h5.012m-2.506 2.507v-5.013m-2.506 2.506h5.012m-2.506 2.507v-5.013m11.658 2.506h5.012m-2.506 2.507v-5.013m-2.506 2.506h5.012m-2.506 2.507v-5.013m11.658 2.506h5.012m-2.506 2.507v-5.013m-2.506 2.506h5.012m-2.506 2.507v-5.013m11.658 2.506h5.012m-2.506 2.507v-5.013m-2.506 2.506h5.012m-2.506 2.507v-5.013m11.657 2.506h5.013m-2.506 2.507v-5.013m-2.507 2.506h5.013m-2.506 2.507v-5.013m11.658 2.506h5.012m-2.506 2.507v-5.013m-2.506 2.506h5.012m-2.506 2.507v-5.013m11.657 2.506h5.013m-2.506 2.507v-5.013M0 284.173h5.012m-2.506 2.506v-5.012m11.658 2.506h5.012m-2.506 2.506v-5.012m-2.506 2.506h5.012m-2.506 2.506v-5.012m11.658 2.506h5.012m-2.506 2.506v-5.012m-2.506 2.506h5.012m-2.506 2.506v-5.012m11.658 2.506h5.012m-2.506 2.506v-5.012m-2.506 2.506h5.012m-2.506 2.506v-5.012m11.658 2.506h5.012m-2.506 2.506v-5.012m-2.506 2.506h5.012m-2.506 2.506v-5.012m11.658 2.506h5.012m-2.506 2.506v-5.012m-2.506 2.506h5.012m-2.506 2.506v-5.012m11.658 2.506h5.012m-2.506 2.506v-5.012m-2.506 2.506h5.012m-2.506 2.506v-5.012m11.658 2.506h5.012m-2.506 2.506v-5.012m-2.506 2.506h5.012m-2.506 2.506v-5.012m11.658 2.506h5.012m-2.506 2.506v-5.012m-2.506 2.506h5.012m-2.506 2.506v-5.012m11.658 2.506h5.012m-2.506 2.506v-5.012m-2.506 2.506h5.012m-2.506 2.506v-5.012m11.658 2.506h5.012m-2.506 2.506v-5.012m-2.506 2.506h5.012m-2.506 2.506v-5.012m11.657 2.506h5.013m-2.506 2.506v-5.012m-2.507 2.506h5.013m-2.506 2.506v-5.012m11.658 2.506h5.012m-2.506 2.506v-5.012m-2.506 2.506h5.012m-2.506 2.506v-5.012m11.657 2.506h5.013m-2.506 2.506v-5.012m-2.507 2.506h5.013m-2.506 2.506v-5.012m11.657 2.506h5.013m-2.506 2.506v-5.012m-2.507 2.506h5.013m-2.506 2.506v-5.012m11.657 2.506h5.013m-2.506 2.506v-5.012m-2.507 2.506h5.013m-2.506 2.506v-5.012m11.657 2.506h5.013m-2.507 2.506v-5.012m-2.506 2.506h5.013m-2.507 2.506v-5.012m11.658 2.506h5.013m-2.507 2.506v-5.012m-2.506 2.506h5.013m-2.507 2.506v-5.012m11.658 2.506h5.013m-2.507 2.506v-5.012m-2.506 2.506h5.013m-2.507 2.506v-5.012m11.658 2.506h5.013m-2.507 2.506v-5.012m-2.506 2.506h5.013m-2.507 2.506v-5.012m11.658 2.506h5.012m-2.506 2.506v-5.012m-2.506 2.506h5.012m-2.506 2.506v-5.012m11.658 2.506h5.013m-2.507 2.506v-5.012m-2.506 2.506h5.013m-2.507 2.506v-5.012m11.658 2.506h5.012m-2.506 2.506v-5.012m-2.506 2.506h5.012m-2.506 2.506v-5.012m11.658 2.506h5.012m-2.506 2.506v-5.012m-2.506 2.506h5.012m-2.506 2.506v-5.012m11.658 2.506h5.012m-2.506 2.506v-5.012m-2.506 2.506h5.012m-2.506 2.506v-5.012m11.658 2.506h5.012m-2.506 2.506v-5.012m-2.506 2.506h5.012m-2.506 2.506v-5.012m11.658 2.506h5.012m-2.506 2.506v-5.012m-2.506 2.506h5.012m-2.506 2.506v-5.012m11.658 2.506h5.012m-2.506 2.506v-5.012m-2.506 2.506h5.012m-2.506 2.506v-5.012m11.658 2.506h5.012m-2.506 2.506v-5.012m-2.506 2.506h5.012m-2.506 2.506v-5.012m11.658 2.506h5.012m-2.506 2.506v-5.012m-2.506 2.506h5.012m-2.506 2.506v-5.012m11.658 2.506h5.012m-2.506 2.506v-5.012m-2.506 2.506h5.012m-2.506 2.506v-5.012m11.658 2.506h5.012m-2.506 2.506v-5.012m-2.506 2.506h5.012m-2.506 2.506v-5.012m11.658 2.506h5.012m-2.506 2.506v-5.012m-2.506 2.506h5.012m-2.506 2.506v-5.012m11.658 2.506h5.012m-2.506 2.506v-5.012m-2.506 2.506h5.012m-2.506 2.506v-5.012m11.657 2.506h5.013m-2.506 2.506v-5.012m-2.507 2.506h5.013m-2.506 2.506v-5.012m11.658 2.506h5.012m-2.506 2.506v-5.012m-2.506 2.506h5.012m-2.506 2.506v-5.012m11.657 2.506h5.013m-2.506 2.506v-5.012" stroke="#DEDEDE" stroke-miterlimit="10"/></svg>