<svg width="503" height="320" fill="none" xmlns="http://www.w3.org/2000/svg"><g clip-path="url(#clip0_7_26437)"><g style="mix-blend-mode:multiply"><path opacity=".03" d="M192.62 23.02c-16.49-9.6-43.06-9.6-59.44 0L15.66 97.79c-16.32 9.57-16.29 25.13.19 34.73l310.58 177.83c16.49 9.6 43.13 9.56 59.44 0L494 229.56c16.38-9.6 1.1-36.05-15.39-45.66L192.62 23.02z" fill="#FCFDFD"/><path opacity=".06" d="M193.2 23.72c-16.34-9.52-42.69-9.52-58.93 0L19.01 97.13c-16.17 9.48-16.15 24.91.19 34.43L327.46 308c16.34 9.52 42.75 9.48 58.93 0l106.19-79.23c16.24-9.52 1.46-35.47-14.88-44.98L193.2 23.72z" fill="#FAFAFC"/><path opacity=".1" d="M193.77 24.42c-16.2-9.43-42.32-9.43-58.41 0l-113 72.05c-16.03 9.4-16.01 24.69.19 34.12l305.94 175.06c16.2 9.43 42.38 9.4 58.41 0l104.24-77.67c16.1-9.43 1.83-34.88-14.37-44.31l-283-159.25z" fill="#F7F8FA"/><path opacity=".13" d="M194.35 25.12c-16.06-9.35-41.94-9.35-57.9 0L25.72 95.81c-15.89 9.31-15.87 24.46.19 33.81L329.52 303.3c16.06 9.35 42.01 9.31 57.9 0l102.29-76.12c15.95-9.35 2.19-34.29-13.87-43.64L194.35 25.12z" fill="#F5F6F9"/><path opacity=".16" d="M194.93 25.82c-15.92-9.26-41.57-9.26-57.38 0L29.07 95.15c-15.75 9.23-15.73 24.24.19 33.5l301.29 172.3c15.92 9.26 41.63 9.23 57.38 0l100.35-74.56c15.81-9.26 2.56-33.71-13.36-42.97L194.93 25.82z" fill="#F2F4F7"/><path opacity=".19" d="M195.51 26.52c-15.77-9.18-41.2-9.18-56.87 0L32.42 94.49c-15.61 9.14-15.59 24.02.19 33.2l298.97 170.92c15.77 9.18 41.26 9.14 56.87 0l98.4-73c15.67-9.18 2.92-33.12-12.85-42.3L195.51 26.52z" fill="#EFF1F6"/><path opacity=".23" d="M196.09 27.22c-15.63-9.09-40.83-9.09-56.36 0L35.77 93.83c-15.47 9.06-15.45 23.8.18 32.89L332.6 296.26c15.63 9.09 40.89 9.06 56.36 0l96.45-71.44c15.53-9.09 3.29-32.53-12.34-41.63L196.09 27.22z" fill="#EDEFF4"/><path opacity=".26" d="M196.66 27.92c-15.49-9.01-40.46-9.01-55.84 0L39.12 93.18c-15.33 8.97-15.31 23.57.18 32.58l294.33 168.16c15.49 9.01 40.52 8.97 55.84 0l94.51-69.88c15.39-9.01 3.66-31.95-11.83-40.95L196.66 27.92z" fill="#EAEDF3"/><path opacity=".29" d="M197.24 28.61c-15.35-8.92-40.08-8.92-55.33 0l-99.44 63.9c-15.19 8.89-15.17 23.35.18 32.27l292.01 166.77c15.35 8.92 40.14 8.89 55.33 0l92.56-68.32c15.25-8.92 4.02-31.36-11.32-40.28L197.24 28.61z" fill="#E7EAF1"/><path opacity=".32" d="M197.82 29.31c-15.2-8.84-39.71-8.84-54.82 0L45.82 91.85c-15.05 8.8-15.02 23.13.18 31.96L335.69 289.2c15.2 8.84 39.77 8.8 54.82 0l90.61-66.76c15.1-8.84 4.39-30.77-10.82-39.61L197.82 29.31z" fill="#E5E8F0"/><path opacity=".35" d="M198.4 30.01c-15.06-8.75-39.34-8.75-54.3 0L49.18 91.2c-14.9 8.72-14.88 22.9.18 31.66l287.37 164.01c15.06 8.75 39.4 8.72 54.3 0l88.67-65.2c14.96-8.75 4.75-30.19-10.31-38.94L198.4 30.01z" fill="#E2E6EE"/><path opacity=".39" d="M198.98 30.71c-14.92-8.67-38.97-8.67-53.79 0L52.53 90.54c-14.76 8.63-14.74 22.68.18 31.35l285.04 162.63c14.92 8.67 39.02 8.63 53.79 0l86.72-63.65c14.82-8.67 5.12-29.6-9.8-38.27L198.98 30.71z" fill="#E0E4EC"/><path opacity=".42" d="M199.56 31.41c-14.78-8.58-38.59-8.58-53.27 0l-90.4 58.47c-14.62 8.55-14.6 22.46.17 31.04l282.72 161.25c14.78 8.58 38.65 8.55 53.27 0l84.77-62.09c14.68-8.58 5.48-29.01-9.29-37.59L199.56 31.41z" fill="#DDE1EB"/><path opacity=".45" d="M200.13 32.11c-14.63-8.5-38.22-8.5-52.76 0L59.23 89.22c-14.48 8.46-14.46 22.24.17 30.73l280.4 159.87c14.63 8.5 38.28 8.46 52.76 0l82.83-60.53c14.54-8.5 5.85-28.43-8.78-36.92L200.13 32.11z" fill="#DADFE9"/><path opacity=".48" d="M200.71 32.81c-14.49-8.41-37.85-8.41-52.25 0L62.58 88.56c-14.34 8.38-14.32 22.01.17 30.43l278.08 158.49c14.49 8.41 37.91 8.38 52.25 0l80.88-58.97c14.4-8.41 6.22-27.84-8.27-36.25L200.71 32.81z" fill="#D8DDE8"/><path opacity=".52" d="M201.29 33.51c-14.35-8.33-37.48-8.33-51.73 0l-83.62 54.4c-14.2 8.29-14.18 21.79.17 30.12l275.76 157.1c14.35 8.33 37.53 8.29 51.73 0l78.93-57.41c14.26-8.33 6.58-27.25-7.77-35.58L201.29 33.51z" fill="#D5DAE6"/><path opacity=".55" d="M201.87 34.21c-14.21-8.24-37.1-8.24-51.22 0L69.29 87.25c-14.06 8.21-14.04 21.57.17 29.81L342.9 272.78c14.21 8.24 37.16 8.21 51.22 0l76.98-55.85c14.11-8.24 6.95-26.67-7.26-34.91L201.87 34.21z" fill="#D3D8E5"/><path opacity=".58" d="M202.45 34.91c-14.06-8.16-36.73-8.16-50.7 0l-79.1 51.68c-13.92 8.12-13.9 21.35.17 29.5l271.12 154.34c14.06 8.16 36.79 8.12 50.7 0l75.04-54.29c13.97-8.16 7.31-26.08-6.75-34.23l-260.48-147z" fill="#D0D6E3"/><path opacity=".61" d="M203.02 35.6c-13.92-8.07-36.36-8.07-50.19 0L75.99 85.92c-13.78 8.04-13.76 21.12.16 29.19l268.79 152.96c13.92 8.07 36.41 8.04 50.19 0l73.09-52.73c13.83-8.07 7.68-25.49-6.24-33.56L203.02 35.6z" fill="#CDD3E2"/><path opacity=".65" d="M203.6 36.3c-13.78-7.99-35.99-7.99-49.68 0L79.33 85.27c-13.64 7.95-13.62 20.9.16 28.89l266.47 151.58c13.78 7.99 36.04 7.95 49.68 0l71.14-51.18c13.69-7.99 8.04-24.91-5.73-32.89L203.6 36.3z" fill="#CBD1E0"/><path opacity=".68" d="M204.18 37c-13.64-7.9-35.62-7.9-49.16 0L82.69 84.61c-13.49 7.87-13.48 20.68.16 28.58L347 263.39c13.64 7.9 35.67 7.87 49.16 0l69.2-49.62c13.55-7.9 8.41-24.32-5.23-32.22L204.18 37z" fill="#C8CFDE"/><path opacity=".71" d="M204.76 37.7c-13.49-7.82-35.24-7.82-48.65 0L86.04 83.95c-13.35 7.79-13.33 20.45.16 28.27l261.83 148.82c13.49 7.82 35.3 7.78 48.65 0l67.25-48.06c13.41-7.82 8.78-23.73-4.72-31.55L204.76 37.7z" fill="#C6CDDD"/><path opacity=".74" d="M205.34 38.4c-13.35-7.73-34.87-7.73-48.13 0L89.4 83.29c-13.21 7.7-13.19 20.23.16 27.96l259.51 147.43c13.35 7.73 34.92 7.7 48.13 0l65.3-46.5c13.26-7.73 9.14-23.14-4.21-30.88L205.34 38.4z" fill="#C3CADB"/><path opacity=".77" d="M205.91 39.1c-13.21-7.65-34.5-7.65-47.62 0L92.74 82.63c-13.07 7.62-13.05 20.01.16 27.65l257.19 146.05c13.21 7.65 34.55 7.62 47.62 0l63.36-44.94c13.12-7.65 9.51-22.56-3.7-30.2L205.91 39.1z" fill="#C0C8DA"/><path opacity=".81" d="M206.49 39.8c-13.07-7.56-34.13-7.56-47.11 0L96.09 81.98c-12.93 7.53-12.91 19.79.15 27.35L351.11 254c13.07 7.56 34.18 7.53 47.11 0l61.41-43.38c12.98-7.56 9.87-21.97-3.19-29.53L206.49 39.8z" fill="#BEC6D8"/><path opacity=".84" d="M207.07 40.5c-12.92-7.48-33.75-7.47-46.59 0L99.45 81.32c-12.79 7.45-12.77 19.56.15 27.04l252.55 143.29c12.92 7.48 33.8 7.45 46.59 0l59.46-41.82c12.84-7.48 10.24-21.38-2.68-28.86L207.07 40.5z" fill="#BBC3D7"/><path opacity=".87" d="M207.65 41.2c-12.78-7.39-33.38-7.39-46.08 0L102.8 80.66c-12.65 7.36-12.63 19.34.15 26.73L353.17 249.3c12.78 7.39 33.43 7.36 46.08 0l57.52-40.26c12.7-7.39 10.6-20.8-2.18-28.19L207.65 41.2z" fill="#B8C1D5"/><path opacity=".9" d="M208.23 41.89c-12.64-7.3-33.01-7.3-45.57 0l-56.51 38.1c-12.51 7.28-12.49 19.12.15 26.42l247.9 140.53c12.64 7.3 33.06 7.28 45.57 0l55.57-38.71c12.56-7.31 10.97-20.21-1.67-27.52L208.23 41.89z" fill="#B6BFD4"/><path opacity=".94" d="M208.8 42.59c-12.5-7.22-32.64-7.22-45.05 0L109.5 79.33c-12.37 7.19-12.35 18.9.15 26.12l245.58 139.14c12.5 7.22 32.69 7.19 45.05 0l53.62-37.15c12.41-7.22 11.34-19.62-1.16-26.84L208.8 42.59z" fill="#B3BDD2"/><path opacity=".97" d="M209.38 43.29c-12.35-7.13-32.27-7.13-44.54 0l-51.99 35.39c-12.22 7.11-12.21 18.67.15 25.81l243.26 137.76c12.35 7.13 32.31 7.11 44.54 0l51.68-35.59c12.27-7.13 11.7-19.04-.65-26.17L209.38 43.29z" fill="#B1BAD1"/><path d="M209.96 43.99c-12.21-7.05-31.89-7.05-44.02 0l-49.73 34.03c-12.08 7.02-12.07 18.45.14 25.5L357.29 239.9c12.21 7.05 31.94 7.02 44.02 0l49.73-34.03c12.13-7.05 12.07-18.45-.14-25.5L209.96 43.99z" fill="#AEB8CF"/></g><path style="mix-blend-mode:multiply" d="M206.575 188.205c8.665-15.111-14.784-44.835-52.375-66.389-37.591-21.555-75.089-26.779-83.753-11.667-8.665 15.111 14.784 44.834 52.375 66.389 37.591 21.555 75.089 26.778 83.753 11.667z" fill="url(#paint0_radial_7_26437)"/><path style="mix-blend-mode:multiply" d="M395.116 291.58c8.665-15.111-14.785-44.835-52.376-66.389-37.591-21.555-75.088-26.779-83.753-11.668-8.665 15.112 14.784 44.835 52.375 66.39 37.591 21.554 75.089 26.778 83.754 11.667z" fill="url(#paint1_radial_7_26437)"/><path d="M393.78 100.5c.34-.2.69-.36 1.03-.49 3.44-1.29 6.11-1.63 7.37-.89l2.4 1.4c-1.26-.73-3.93-.39-7.37.89-.35.13-.69.3-1.03.49-3.19 1.84-5.89 6.4-5.88 10.21v4.45l-2.39-1.4v-4.45c-.02-3.81 2.67-8.37 5.86-10.21h.01z" fill="url(#paint2_linear_7_26437)"/><path d="M396.18 101.9c-3.19 1.84-5.89 6.4-5.88 10.21v4.45c8.34-4.81 15.09-11.35 15.08-14.61 0-2.28-3.32-2.35-8.17-.54-.35.13-.69.3-1.03.49z" fill="url(#paint3_linear_7_26437)"/><path d="M296.82 224.74l45.99-26.77-30.1-11.73-19.54 8.16-17.35 17.22 21 13.12zm-187.1-105.21l45.99-26.77-30.1-11.73-18.48 8.2-5.28 23.82 7.87 6.48z" fill="#A7B1C2"/><path d="M323.39 200.12c-14.23-8.22-25.8-1.62-25.85 14.73-.01 4.71.93 9.72 2.62 14.66 4.18 12.2 12.93 23.98 23.06 29.83 11.43 6.6 21.14 3.64 24.55-6.24.84-2.43 1.29-5.27 1.3-8.49.05-16.35-11.45-36.27-25.68-44.48v-.01z" fill="#82E6FE"/><path d="M320.2 189.54c4.68-2.72 11.17-2.34 18.33 1.8 14.23 8.22 25.73 28.13 25.68 44.48 0 3.22-.47 6.06-1.3 8.49-1.27 3.69-3.42 6.42-6.21 8.04l-15.14 8.79c2.79-1.62 4.94-4.35 6.21-8.04.84-2.43 1.29-5.27 1.3-8.49.05-16.35-11.45-36.27-25.68-44.48-7.16-4.13-13.65-4.52-18.33-1.8l15.14-8.79z" fill="#66A6FF"/><path d="M305.47 215.87c-1.47 10.7 5.31 25.58 15.16 33.23 9.85 7.65 19.03 5.18 20.5-5.52 1.47-10.7-5.31-25.58-15.16-33.23-9.85-7.65-19.03-5.18-20.5 5.52z" fill="#66A6FF"/><path d="M319.62 226.86c-.3 2.21 1.1 5.29 3.14 6.87s3.94 1.07 4.24-1.14c.31-2.21-1.1-5.29-3.14-6.87s-3.94-1.07-4.24 1.14z" fill="#8691A6"/><path d="M305.47 215.87c-1.47 10.7 5.31 25.58 15.16 33.23 9.85 7.65 19.03 5.18 20.5-5.52 1.47-10.7-5.31-25.58-15.16-33.23-9.85-7.65-19.03-5.18-20.5 5.52zm3.98-2.55l10.39 12.7c-.11.25-.19.53-.23.85-.05.38-.05.78-.01 1.19l-11.53-4.34c-.28-2.05-.31-4.03-.06-5.87.25-1.78.74-3.29 1.44-4.53zm10.52 16.39l-10.74-.87c-.2-.63-.38-1.25-.54-1.88l11.09 2.14c.05.2.11.41.18.61h.01zm.53-4.56c-.1.07-.19.16-.28.26l-9.48-13.84c.28-.29.58-.55.89-.78l8.87 14.36zm2.32-.05c-.63-.28-1.22-.36-1.72-.23l-7.67-15.06c2.49-.93 5.6-.56 8.94 1.22l.44 14.08.01-.01zm3.47-11.41l-2.21 12.23-.22-.19c-.08-.06-.15-.11-.23-.16l1.26-12.97c.23.17.47.34.71.53s.47.37.7.57l-.01-.01zm9.9 13.75l-9.94 1.38c-.37-.78-.85-1.52-1.41-2.16l3.86-10.73c3.12 3.24 5.72 7.29 7.49 11.51zm1.73 5.16l-11.09-2.14c-.05-.2-.1-.39-.17-.59l10.73.87c.19.62.37 1.24.52 1.86h.01zm-.75 13.51l-10.39-12.7c.1-.24.17-.5.21-.81.05-.36.05-.74.01-1.13l11.54 4.34c.27 2.02.3 3.98.05 5.8-.24 1.76-.73 3.26-1.42 4.49v.01zm-11.03-11.83c.1-.08.19-.16.27-.26l9.48 13.84c-.28.29-.57.55-.87.78l-8.87-14.36h-.01zm-2.22.16c.61.24 1.17.29 1.65.14l7.67 15.06c-2.46.95-5.55.61-8.87-1.11l-.44-14.09h-.01zm-3.46 11.47l2.21-12.22s.05.04.08.06c.13.1.25.19.38.27l-1.26 12.97c-.28-.2-.57-.41-.85-.63-.19-.14-.37-.3-.55-.45h-.01zm-9.99-13.74l9.95-1.38c.39.79.9 1.54 1.48 2.18l-3.86 10.72c-3.15-3.23-5.78-7.29-7.57-11.52z" fill="#fff"/><path d="M136.19 95.15c-14.23-8.22-25.8-1.62-25.85 14.73-.01 4.71.93 9.72 2.62 14.66 4.18 12.2 12.93 23.98 23.06 29.83 11.43 6.6 21.14 3.64 24.55-6.24.84-2.43 1.29-5.27 1.3-8.49.05-16.35-11.45-36.27-25.68-44.48v-.01z" fill="#82E6FE"/><path d="M133 84.56c4.68-2.72 11.17-2.34 18.33 1.8 14.23 8.22 25.73 28.13 25.68 44.48 0 3.22-.47 6.06-1.3 8.49-1.27 3.69-3.42 6.42-6.21 8.04l-15.14 8.79c2.79-1.62 4.94-4.35 6.21-8.04.84-2.43 1.29-5.27 1.3-8.49.05-16.35-11.45-36.27-25.68-44.48-7.16-4.13-13.65-4.52-18.33-1.8L133 84.56z" fill="#66A6FF"/><path d="M118.27 110.9c-1.47 10.7 5.31 25.58 15.16 33.23 9.85 7.65 19.03 5.18 20.5-5.52 1.47-10.7-5.31-25.58-15.16-33.23-9.85-7.65-19.03-5.18-20.5 5.52z" fill="#66A6FF"/><path d="M132.42 121.89c-.3 2.21 1.1 5.29 3.14 6.87s3.94 1.07 4.24-1.14c.3-2.21-1.1-5.29-3.14-6.87s-3.94-1.07-4.24 1.14z" fill="#8691A6"/><path d="M118.27 110.9c-1.47 10.7 5.31 25.58 15.16 33.23 9.85 7.65 19.03 5.18 20.5-5.52 1.47-10.7-5.31-25.58-15.16-33.23-9.85-7.65-19.03-5.18-20.5 5.52zm3.98-2.55l10.39 12.7c-.11.25-.19.53-.23.85-.05.38-.05.78-.01 1.19l-11.53-4.34c-.28-2.05-.31-4.03-.06-5.87.25-1.78.74-3.29 1.44-4.53zm10.52 16.39l-10.74-.87c-.2-.63-.38-1.25-.54-1.88l11.09 2.14c.05.2.11.41.18.61h.01zm.53-4.56c-.1.07-.19.16-.28.26l-9.48-13.84c.28-.29.57-.55.89-.78l8.87 14.36zm2.32-.05c-.63-.28-1.22-.36-1.72-.23l-7.67-15.06c2.49-.93 5.6-.56 8.94 1.22l.44 14.08.01-.01zm3.47-11.41l-2.21 12.23-.22-.19c-.08-.06-.15-.11-.23-.16l1.26-12.97c.23.17.47.34.71.53s.47.37.7.57l-.01-.01zm9.9 13.76l-9.94 1.38c-.37-.78-.85-1.52-1.41-2.16l3.86-10.73c3.12 3.24 5.72 7.29 7.49 11.51zm1.73 5.16l-11.09-2.14c-.05-.2-.1-.39-.17-.59l10.73.87c.19.62.37 1.24.52 1.86h.01zm-.75 13.51l-10.39-12.7c.1-.24.17-.5.21-.81.05-.36.05-.73.01-1.13l11.54 4.34c.27 2.02.3 3.98.05 5.8-.24 1.76-.73 3.26-1.42 4.49v.01zm-11.03-11.83c.1-.08.19-.16.27-.26l9.48 13.84c-.28.29-.57.55-.87.78l-8.87-14.36h-.01zm-2.22.16c.61.24 1.17.29 1.65.14l7.67 15.06c-2.46.95-5.55.61-8.87-1.11l-.44-14.09h-.01zm-3.46 11.47l2.21-12.22s.05.04.08.06c.13.1.25.19.38.27l-1.26 12.97c-.28-.2-.57-.41-.85-.63-.19-.14-.37-.3-.55-.45h-.01zm-9.99-13.74l9.95-1.38c.39.79.9 1.54 1.48 2.18l-3.86 10.72c-3.15-3.23-5.78-7.29-7.57-11.52z" fill="#fff"/><path d="M136.56 60.3c.67-.4 1.54-.68 2.54-.85 7.84.64 15.89 2.21 24.08 4.61 1.07.26 2.12.59 3.17.93.21.07.41.13.62.19 9.53 3.1 19.07 7.25 28.77 12.5l14 7.6c.36.2.72.41 1.08.61 1.13.62 2.27 1.26 3.4 1.91.9.52 1.54.89 2.16 1.27 23.52 13.83 41.04 27.44 61.99 52.58l16.39 19.66c1.02 1.23.67 2.81-.49 2.22-14.21-7.22-29.84-11.35-54.47-25.57-6.58-3.8-13.34-7.79-20.18-11.92-.1-.05-.19-.12-.29-.18-.84-.51-1.69-1.04-2.54-1.55-2.03-1.23-4.05-2.46-6.09-3.72-16.98-10.52-34.12-21.85-49.94-33.49-1.51-1.07-2.99-2.17-4.46-3.27-.5-.38-1.01-.76-1.51-1.14-4.01-3.03-7.9-6.08-11.67-9.13-5.89-4.96-8.16-8.41-8.15-10.68 0-1.14.58-1.98 1.57-2.57l.02-.01z" fill="url(#paint4_linear_7_26437)"/><path d="M180.28.64c.78-.46 1.71-.68 2.74-.64l41.62 1.56c19.63.74 40.92 7.18 62.57 18.92l14 7.6c1.53.83 3.06 1.69 4.59 2.57 25.22 14.56 43.58 28.62 65.78 55.26l24.69 29.62-91.54 53.2-24.69-29.62c-22.2-26.63-40.56-40.7-65.78-55.26-1.53-.88-3.06-1.74-4.59-2.57l-14-7.6c-21.65-11.75-42.94-18.18-62.57-18.92L91.48 53.2c-1.03-.04-1.95.18-2.74.64L180.28.64z" fill="#F2F4F8"/><path d="M244.38 10.41c-6.85-1.55-13.55-2.45-19.99-2.7l-6.23-.23-73.1 42.2c7.3 1.03 14.79 2.76 22.35 5.16l76.97-44.43z" fill="url(#paint5_linear_7_26437)"/><path d="M306.5 41.23a7.096 7.096 0 017.44.22c21.05 13.87 35.27 25.21 53.91 47.56l16.99 20.37c2.11 2.53 1.44 6.36-1.41 8.01l-65.96 38.33c-6.73 3.91-15.3 2.4-20.28-3.58l-13.44-16.13c-16.51-19.8-28.16-29.49-46.76-43.06-4.07-2.96-3.78-9.14.57-11.66l68.95-40.07-.01.01z" fill="url(#paint6_linear_7_26437)"/><path d="M308.75 42.37l-70.66 41.06c-2.42 1.41-3.57 3.92-3.48 6.41-1.17-3.04-.18-6.72 2.94-8.54l68.95-40.07a7.096 7.096 0 017.44.22l.34.23c-1.84-.5-3.84-.3-5.53.69z" fill="url(#paint7_linear_7_26437)"/><path style="mix-blend-mode:multiply" d="M313.32 150.89l67.19-39.05c1.71-.99 2.53-2.75 2.59-4.54l1.74 2.08a5.323 5.323 0 01-1.41 8.01l-65.96 38.33c-6.73 3.91-15.3 2.4-20.28-3.58l-2.24-2.69c5.15 4.17 12.46 4.87 18.38 1.43l-.01.01z" fill="url(#paint8_linear_7_26437)"/><path d="M98.06 111.4l11.66 8.13c-1.35-4.58-1.31-8.75-1.29-13.11.05-17.83 13.09-24.6 28.6-15.64 15.51 8.96 31.83 37.37 26.56 57.08l115.27 67.55 17.96 9.34c-6.65-25.88 6.45-34.03 16.05-34.03 4.01 0 8.28 1.29 12.7 3.85 7.3 4.21 14.13 11.4 19.24 20.25 5.11 8.85 7.91 18.35 7.88 26.73 0 3.41-.49 6.53-1.42 9.25-.13.37-.27.72-.41 1.07l.57.28c15.28 7.51 45.32 13.62 60.16 5.27 17.63-9.92 39.74-23.21 55.58-33.04 3.94-2.72 7.32-6.26 9.88-10.6 7.58-12.85 5.86-29.76-3.99-40.96a1.66 1.66 0 00-.13-.14l-.02-.02c-1.33-1.5-2.78-2.9-4.3-4.23h-.01c-.03-.05-.05-.1-.09-.15l-.92-.72c-.4-.33-.77-.69-1.18-1.01l-3.97-3.09-25.15-19.56-41.04-28.34-91.54 53.2-3.26-3.91-21.43-25.71c-22.2-26.64-40.56-40.7-65.78-55.26-1.53-.88-3.06-1.74-4.59-2.57l-14-7.6c-21.64-11.75-42.94-18.19-62.57-18.92l-41.61-1.56c-2.63-.1-4.57 1.51-5.25 4.36l-4.34 18.03c-2.67 11.12 4.94 27.95 16.19 35.79l-.01-.01zm36.92-48.52c0-1.14.59-1.98 1.58-2.57.67-.4 1.54-.68 2.54-.85 17.98 1.46 37.01 7.59 56.64 18.24l14 7.6c1.49.81 3 1.65 4.49 2.51 24.78 14.36 42.63 28.02 64.16 53.85l16.39 19.66c1.02 1.23.67 2.81-.49 2.22-14.21-7.22-29.84-11.35-54.47-25.57-27.18-15.69-57.44-34.55-83.5-54.13-.5-.38-1.01-.76-1.51-1.14-4-3.03-7.9-6.08-11.67-9.13-5.89-4.97-8.16-8.41-8.15-10.68l-.01-.01z" fill="url(#paint9_linear_7_26437)"/><path d="M396.25 115.53l66.12 47.93.08-.03 3.97 3.09c.41.32.78.68 1.18 1.02l.92.72c.04.05.06.1.09.15 1.53 1.35 2.99 2.75 4.33 4.27-.38 3.25-1.19 7.71-1.83 9.03l-.04-.02c-2.51 7.23-11.91 15.75-33.5 28.34-3.75 2.18-7.6 4.28-11.52 6.2-21.09 10.3-46.21 7.65-65.03-6.38-22.47-16.76-56.32-41.11-56.32-41.11l91.54-53.2.01-.01z" fill="#F2F4F8"/><path d="M465.05 194.56c4.26-4.97 8.91-9.82 9.92-19.18.29.4.62.79.89 1.2.32.44.57.92.87 1.37 1.14 1.93 2.05 3.97 2.81 6.06-.74 6.85-3.4 14.08-9.79 20.72-1.76-.51-3.29-1.81-4.12-3.47-1.03-2.02-1.12-4.43-.58-6.71v.01z" fill="#fff"/><path d="M453.51 205.58c4.33-2.5 7.87-.48 7.89 4.5.01 5.01-3.51 11.11-7.84 13.61l-27.36 15.7c-4.33 2.5-7.87.48-7.89-4.53-.01-4.97 3.51-11.07 7.84-13.57l27.36-15.7v-.01z" fill="url(#paint10_linear_7_26437)"/><path style="mix-blend-mode:multiply" d="M459.2 213.14c-.02-4.97-3.56-6.99-7.89-4.49l-27.36 15.7c-1.23.71-2.38 1.73-3.41 2.91 1.42-2.51 3.41-4.71 5.61-5.98l27.36-15.7c4.33-2.5 7.87-.48 7.89 4.5 0 3.59-1.81 7.72-4.43 10.7 1.38-2.44 2.24-5.17 2.23-7.64z" fill="url(#paint11_linear_7_26437)"/><path d="M205.96 166.49c.88-4.86 2.06-11.34 3.24-17.83 1.29-6.46 2.57-12.92 3.54-17.76 1.03-4.84 1.72-8.06 1.72-8.06s-.55 3.24-1.36 8.12c-.88 4.86-2.06 11.34-3.24 17.82-1.28 6.46-2.57 12.92-3.54 17.77-.49 2.31-.9 4.23-1.19 5.62l-.1-.06c.24-1.41.56-3.32.95-5.63l-.02.01z" fill="url(#paint12_linear_7_26437)"/><path d="M301.45 167.71s-.02.84-.05 2.3c.04.74-.19 1.59-.33 2.6-.12 1.02-.56 2.08-.84 3.29-1.45 4.78-4.42 10.78-7.65 16.61-3.14 5.88-6.59 11.6-9.27 15.83-2.67 4.24-4.45 7.06-4.45 7.06s1.98-2.69 4.75-6.87c2.74-4.19 6.3-9.86 9.54-15.71 3.14-5.9 6.03-11.97 7.41-16.83.7-2.44.95-4.51.94-5.99-.04-1.46-.05-2.3-.05-2.3v.01z" fill="url(#paint13_linear_7_26437)"/><path d="M157.51 84.69l-5.89 12.67c6.24 7.69 11.32 16.44 14.18 25.98.6 2.43 1.27 4.83 1.55 7.32.2 1.23.38 2.47.39 3.72.03 1.25.16 2.49.11 3.74l-.29 3.73c-.04 1.25-.47 2.45-.7 3.68-.2 1.26-.59 2.45-1.04 3.62l-.11-.07c.4-1.19.75-2.38.9-3.63.18-1.22.56-2.41.6-3.65l.24-3.7c.04-1.23-.11-2.47-.15-3.7-.02-1.24-.21-2.46-.43-3.68-.3-2.46-1-4.84-1.62-7.23-3.04-9.4-7.79-18.29-14-26l-.08-.1.05-.11 6.29-12.61v.02z" fill="url(#paint14_linear_7_26437)"/><path d="M296.5 224.54v.06l.33.13c-6.64-25.85 6.45-34.01 16.05-34.01 4.01 0 8.29 1.25 12.69 3.82 7.3 4.21 14.14 11.44 19.21 20.26 5.13 8.88 7.96 18.35 7.89 26.77 0 .85-.07 1.71-.07 2.5-.13 1.45-.33 2.83-.66 4.15-.13.66-.33 1.31-.53 1.97.2-.53.33-.99.46-1.51 1.58-5 2.04-10.13 1.71-15.06-1.25-19.01-14.47-36.31-26.25-42.89-7.96-4.41-20.92-4.8-27.89 3.82 0 0-.07 0-.07.06-4.54 5.66-6.58 15.19-2.89 29.93h.02z" fill="url(#paint15_linear_7_26437)"/><path d="M367.75 222.09c.65-.26 1.36-.26 2.07-.29 18.89 10.84 25.59 6.76 34.59 5.76 2.19.84 4.12 2.27 5.22 4.26.9 1.62 1.11 3.61.55 5.35-7.2 1.23-14.29 1.94-20.65 1.66-8.56-.38-16.49-4.56-22.13-11.01-.8-.92-.94-5.21.35-5.73z" fill="#fff"/><path d="M291.18 161.32c.38-.3.76-.55 1.13-.77 1.77-1.02 3.41-1.13 4.59-.44l2.64 1.53c-1.19-.69-2.82-.59-4.59.44-.37.22-.75.47-1.13.77-5.31 4.14-8.93 8.41-8.92 10.92 0 .72.31 1.25.87 1.57l-2.64-1.53c-.56-.33-.87-.85-.87-1.57 0-2.5 3.62-6.77 8.92-10.92z" fill="url(#paint16_linear_7_26437)"/><path d="M294.95 162.08c-.37.22-.75.47-1.13.77-5.31 4.14-8.93 8.41-8.92 10.92.01 3.58 7.42 2.2 16.56-3.07v-4.88c-.03-4.18-3-5.75-6.5-3.73l-.01-.01z" fill="url(#paint17_linear_7_26437)"/><path style="mix-blend-mode:multiply" d="M216.77 135.06c-.58 1.29 1.86 3.64 5.44 5.23 3.58 1.6 6.95 1.84 7.53.55.58-1.29-1.86-3.64-5.44-5.23-3.58-1.6-6.95-1.84-7.53-.55z" fill="url(#paint18_linear_7_26437)"/><path d="M218.19 134.34c.83 1.19 2.59 2.54 4.94 3.59 2.42 1.08 4.68 1.48 6.11 1.27.43.62.69 1.2.49 1.64-.58 1.29-3.95 1.05-7.53-.55s-6.02-3.94-5.44-5.23c.19-.42.74-.62 1.42-.72h.01z" fill="url(#paint19_linear_7_26437)"/><path style="mix-blend-mode:multiply" d="M159.48 95.36c-.82 1.15 1.1 3.93 4.29 6.21 3.19 2.27 6.45 3.18 7.27 2.03.82-1.15-1.1-3.93-4.29-6.21-3.19-2.27-6.45-3.18-7.27-2.03z" fill="url(#paint20_linear_7_26437)"/><path d="M159.48 95.36c.27-.38.86-.46 1.57-.42.59 1.32 2.04 2.98 4.12 4.47 2.15 1.53 4.26 2.36 5.7 2.45.31.7.46 1.34.17 1.74-.82 1.15-4.08.25-7.27-2.03-3.19-2.28-5.12-5.06-4.29-6.21z" fill="url(#paint21_linear_7_26437)"/><path d="M82.28 73.93l2.76-11.49 1.98 1.14c3.61 2.09 6.54 6.71 6.54 10.32 0 3.61-2.93 4.85-6.54 2.77l-4.74-2.74zm131.95 13.86c-1.13-.65-2.27-1.29-3.4-1.92l-.1 34.7c2.98 1.84 5.95 3.66 8.91 5.45l-3.25-36.97c-.63-.38-1.26-.75-1.89-1.11-.09-.05-.18-.11-.27-.16v.01zm-47.07-22.55c-1.32-.43-2.64-.84-3.96-1.22l-8.39 18.67c.5.38 1 .76 1.51 1.14 1.47 1.11 2.96 2.21 4.45 3.31l6.39-21.89v-.01z" fill="#66A6FF"/><path d="M163.9 147.98c.1-.24 10.11-24.39-18.6-53.25-4.87-4.89-10.44-8.07-16.13-9.18-7.41-1.44-13.7.29-17.71 4.9-5.49 6.3-6.24 16.94-2.04 29.18l.62-.21c-4.12-12.01-3.42-22.41 1.92-28.53 3.85-4.42 9.93-6.08 17.09-4.68 5.56 1.09 11.02 4.2 15.79 9 28.4 28.55 18.56 52.29 18.46 52.52l.6.26v-.01z" fill="#526EEA"/><path d="M129.11 82.52c6.1 1.19 11.58 4.68 15.96 9.09 26.28 26.42 20.1 52.63 18.53 56.24 5.27-19.71-11.05-48.12-26.56-57.08-15.52-8.95-28.55-2.18-28.6 15.64-.01 4.36-.06 8.54 1.29 13.12-7.49-21.86 1.5-40.5 19.38-37v-.01z" fill="url(#paint22_linear_7_26437)"/><path d="M112 63.82c-3-1.73-5.44-.35-5.45 3.11 0 3.45 2.41 7.64 5.41 9.38 3 1.73 5.44.35 5.45-3.11 0-3.45-2.41-7.64-5.41-9.38z" fill="url(#paint23_linear_7_26437)"/></g><defs><linearGradient id="paint2_linear_7_26437" x1="404.59" y1="107.65" x2="387.9" y2="107.65" gradientUnits="userSpaceOnUse"><stop stop-color="#F5F7FA"/><stop offset="1" stop-color="#C3CFE2"/></linearGradient><linearGradient id="paint3_linear_7_26437" x1="405.38" y1="108.34" x2="390.3" y2="108.34" gradientUnits="userSpaceOnUse"><stop stop-color="#F5F7FA"/><stop offset="1" stop-color="#C3CFE2"/></linearGradient><linearGradient id="paint4_linear_7_26437" x1="211.45" y1="120.61" x2="225.02" y2="91.7" gradientUnits="userSpaceOnUse"><stop stop-color="#66A6FF"/><stop offset="1" stop-color="#89F7FE"/></linearGradient><linearGradient id="paint5_linear_7_26437" x1="244.38" y1="31.16" x2="145.07" y2="31.16" gradientUnits="userSpaceOnUse"><stop stop-color="#89F7FE"/><stop offset="1" stop-color="#66A6FF"/></linearGradient><linearGradient id="paint6_linear_7_26437" x1="277.78" y1="58.41" x2="342.09" y2="141.88" gradientUnits="userSpaceOnUse"><stop stop-color="#89F7FE"/><stop offset="1" stop-color="#66A6FF"/></linearGradient><linearGradient id="paint7_linear_7_26437" x1="307.97" y1="34.95" x2="243.47" y2="88.23" gradientUnits="userSpaceOnUse"><stop stop-color="#89F7FE"/><stop offset="1" stop-color="#66A6FF"/></linearGradient><linearGradient id="paint8_linear_7_26437" x1="377.68" y1="101.67" x2="311.28" y2="156.53" gradientUnits="userSpaceOnUse"><stop stop-color="#89F7FE"/><stop offset="1" stop-color="#66A6FF"/></linearGradient><linearGradient id="paint9_linear_7_26437" x1="480.93" y1="157.31" x2="82.99" y2="157.31" gradientUnits="userSpaceOnUse"><stop stop-color="#F5F7FA"/><stop offset="1" stop-color="#C3CFE2"/></linearGradient><linearGradient id="paint10_linear_7_26437" x1="461.4" y1="222.48" x2="418.32" y2="222.48" gradientUnits="userSpaceOnUse"><stop stop-color="#C3CFE2"/><stop offset="1" stop-color="#F5F7FA"/></linearGradient><linearGradient id="paint11_linear_7_26437" x1="461.4" y1="215.88" x2="420.55" y2="215.88" gradientUnits="userSpaceOnUse"><stop stop-color="#C3CFE2"/><stop offset="1" stop-color="#F5F7FA"/></linearGradient><linearGradient id="paint12_linear_7_26437" x1="214.45" y1="147.52" x2="205.02" y2="147.52" gradientUnits="userSpaceOnUse"><stop stop-color="#F5F7FA"/><stop offset="1" stop-color="#C3CFE2"/></linearGradient><linearGradient id="paint13_linear_7_26437" x1="301.51" y1="191.56" x2="278.86" y2="191.56" gradientUnits="userSpaceOnUse"><stop stop-color="#F5F7FA"/><stop offset="1" stop-color="#C3CFE2"/></linearGradient><linearGradient id="paint14_linear_7_26437" x1="167.86" y1="116.93" x2="151.17" y2="116.93" gradientUnits="userSpaceOnUse"><stop stop-color="#F5F7FA"/><stop offset="1" stop-color="#C3CFE2"/></linearGradient><linearGradient id="paint15_linear_7_26437" x1="353.7" y1="218.93" x2="294.6" y2="218.93" gradientUnits="userSpaceOnUse"><stop stop-color="#F5F7FA"/><stop offset="1" stop-color="#C3CFE2"/></linearGradient><linearGradient id="paint16_linear_7_26437" x1="299.55" y1="167.5" x2="282.26" y2="167.5" gradientUnits="userSpaceOnUse"><stop stop-color="#F5F7FA"/><stop offset="1" stop-color="#C3CFE2"/></linearGradient><linearGradient id="paint17_linear_7_26437" x1="301.45" y1="168.48" x2="284.89" y2="168.48" gradientUnits="userSpaceOnUse"><stop stop-color="#F5F7FA"/><stop offset="1" stop-color="#C3CFE2"/></linearGradient><linearGradient id="paint18_linear_7_26437" x1="229.82" y1="137.95" x2="216.69" y2="137.95" gradientUnits="userSpaceOnUse"><stop stop-color="#6991C7"/><stop offset=".23" stop-color="#A3BDED"/><stop offset="1" stop-color="#6991C7"/></linearGradient><linearGradient id="paint19_linear_7_26437" x1="224.28" y1="135.7" x2="222.12" y2="140.43" gradientUnits="userSpaceOnUse"><stop stop-color="#6991C7"/><stop offset=".23" stop-color="#A3BDED"/><stop offset="1" stop-color="#6991C7"/></linearGradient><linearGradient id="paint20_linear_7_26437" x1="171.23" y1="99.48" x2="159.29" y2="99.48" gradientUnits="userSpaceOnUse"><stop stop-color="#6991C7"/><stop offset=".23" stop-color="#A3BDED"/><stop offset="1" stop-color="#6991C7"/></linearGradient><linearGradient id="paint21_linear_7_26437" x1="166.26" y1="97.94" x2="162.52" y2="103.74" gradientUnits="userSpaceOnUse"><stop stop-color="#6991C7"/><stop offset=".77" stop-color="#A3BDED"/><stop offset="1" stop-color="#6991C7"/></linearGradient><linearGradient id="paint22_linear_7_26437" x1="165.35" y1="114.98" x2="107.07" y2="114.98" gradientUnits="userSpaceOnUse"><stop stop-color="#F5F7FA"/><stop offset="1" stop-color="#C3CFE2"/></linearGradient><linearGradient id="paint23_linear_7_26437" x1="117.42" y1="70.06" x2="106.55" y2="70.06" gradientUnits="userSpaceOnUse"><stop stop-color="#F5F7FA"/><stop offset="1" stop-color="#C3CFE2"/></linearGradient><radialGradient id="paint0_radial_7_26437" cx="0" cy="0" r="1" gradientUnits="userSpaceOnUse" gradientTransform="matrix(-68.06445 -39.02822 15.61129 -27.22578 138.516 149.148)"><stop stop-color="#98A7C4"/><stop offset=".24" stop-color="#B8C2D6"/><stop offset=".57" stop-color="#DEE3EC"/><stop offset=".84" stop-color="#F6F7FA"/><stop offset="1" stop-color="#fff"/></radialGradient><radialGradient id="paint1_radial_7_26437" cx="0" cy="0" r="1" gradientUnits="userSpaceOnUse" gradientTransform="matrix(-68.06445 -39.02822 15.61129 -27.22578 327.054 252.546)"><stop stop-color="#98A7C4"/><stop offset=".24" stop-color="#B8C2D6"/><stop offset=".57" stop-color="#DEE3EC"/><stop offset=".84" stop-color="#F6F7FA"/><stop offset="1" stop-color="#fff"/></radialGradient><clipPath id="clip0_7_26437"><path fill="#fff" d="M0 0h502.43v319.95H0z"/></clipPath></defs></svg>