<svg width="252" height="53" viewBox="0 0 252 53" fill="none" xmlns="http://www.w3.org/2000/svg">
<g clip-path="url(#clip0_1_1290)">
<path d="M55.8914 26.4098H54.7434L56.679 21.0768C54.6239 23.3352 52.465 24.7194 51.6349 25.2441L51.177 24.2241C53.6914 22.7816 55.5126 21.2081 56.7958 19.7947H53.3953L53.8025 18.6726H57.5519L58.377 16.3995H56.5312C55.7555 17.3759 55.1925 17.8859 54.8133 18.2501L53.9666 17.5799C54.996 16.7057 55.966 15.7149 57.3342 13.2669L58.4822 13.4274C58.2667 13.8207 57.9891 14.3452 57.3601 15.2777H58.7842L59.6568 12.8735H60.805L59.9322 15.2777H63.1294L62.7222 16.3995H59.5249L58.6999 18.6726H62.2458L61.8385 19.7947H58.6994C58.9631 21.951 59.6074 23.0585 60.4764 24.1075L59.3636 25.3316C58.4459 24.1367 57.939 22.6506 57.8588 20.9894L55.8914 26.4098ZM52.1885 21.5577C51.8373 20.5232 51.7213 20.0424 51.7147 19.4594L49.192 26.4098H48.0584L50.6023 19.4011C49.7142 20.7273 48.6636 21.9802 47.4754 23.1314L47.4033 21.6889C48.9058 20.3919 50.427 18.4833 51.4368 16.8223H49.4169L49.8293 15.6857H51.9511L52.972 12.8735H54.1054L53.0847 15.6857H54.8867L54.4741 16.8223H52.6721L52.323 17.784C52.3598 18.4833 52.835 19.7364 53.3342 20.5232L52.1885 21.5577Z" fill="white"/>
<path d="M69.5869 24.6031C66.9934 25.1423 64.0934 25.5648 61.5752 25.8561L61.8346 24.6615C62.4514 24.6031 63.2481 24.5302 65.1745 24.2678L66.8352 19.6927H63.9578L64.3704 18.5562H71.2877L70.8753 19.6927H68.056L66.4586 24.0932C67.612 23.9183 68.7709 23.7287 69.9452 23.4958L69.5869 24.6031ZM74.9622 12.9175C74.7455 13.5146 74.555 14.0393 74.1187 15.3216H78.7254L78.3076 16.4726H73.7444C73.1983 18.1775 72.5847 20.1882 72.5365 22.4028C72.5083 23.4811 72.879 24.9819 73.4604 24.9819C73.8672 24.9819 74.5624 23.9475 75.1416 22.5924L76.0755 23.1024C75.5599 24.1223 75.1065 25.011 74.4577 25.6376C73.7532 26.3369 73.3595 26.3808 73.0978 26.3808C71.4993 26.3808 71.1712 23.9619 71.2203 22.8253C71.271 21.3246 71.5318 19.7657 72.0158 18.1919C72.4734 16.6911 72.5171 16.5309 72.5383 16.4726H64.8651L65.2829 15.3216H72.9123C73.1372 14.6221 73.444 13.777 73.7415 12.9175H74.9622ZM77.3092 15.2195C76.9263 14.7533 76.5035 14.3161 75.5723 13.7187L76.5583 12.8445C77.4235 13.3836 77.7628 13.6896 78.3637 14.3161L77.3092 15.2195Z" fill="white"/>
<path d="M47.4769 31.4949C49.6348 30.3145 50.9389 29.3237 51.9857 28.3621C52.2879 29.0908 52.7567 30.0816 54.249 31.4949H47.4769ZM50.5878 36.6966C51.2112 37.7019 51.3842 38.0661 51.7736 38.9551C51.1816 38.9842 48.2594 39.1882 47.604 39.2319C47.3662 39.2466 45.9604 39.2757 45.0344 39.3049C45.7506 38.5325 46.874 37.2794 48.2287 35.5893H55.8291L56.2311 34.4818H43.2391L42.8371 35.5893H46.8191C46.223 36.3907 45.1683 37.7749 43.7014 39.334C43.2455 39.3484 41.9415 39.3776 41.6655 39.3776L41.3481 40.5724C45.4792 40.4414 46.1398 40.3831 52.1604 39.9314C52.3202 40.4122 52.3887 40.7035 52.4691 41.0824L53.7891 40.3684C53.2876 38.5472 52.7385 37.4981 51.7851 36.0409L50.5878 36.6966ZM54.5977 31.8153C55.533 32.6024 56.1906 32.9519 56.5908 33.1706L57.6534 32.0049C55.4527 31.1015 53.7808 29.382 53.0005 27.3276H51.7072C50.5443 28.4495 49.2333 29.3384 48.0256 30.0233C46.0436 31.1599 44.5994 31.6551 43.6693 31.9758L43.842 33.1415C44.459 32.9228 45.5029 32.5294 46.9207 31.7862L46.6246 32.6024H54.3121L54.5977 31.8153Z" fill="white"/>
<path d="M59.4081 40.9949H58.2308L60.3835 35.0648C59.1613 35.9098 58.334 36.3468 57.8465 36.6092L57.7808 35.429C60.7326 33.9427 62.7716 32.0485 63.6693 30.8975H59.6001L60.0022 29.79H62.2982L63.1604 27.415H64.3375L63.4752 29.79H65.3644L64.9626 30.8975C64.5899 31.3636 63.9039 32.2525 62.437 33.491C62.8701 34.3799 63.2109 34.8024 63.8223 35.3998L62.7822 36.4634C62.2342 35.8515 61.829 35.0065 61.6876 34.715L59.4081 40.9949ZM70.7752 27.415L69.2468 31.6259H72.4438L72.0102 32.8208H68.813L66.4701 39.2756H70.0013L69.5677 40.4705H61.0952L61.529 39.2756H65.2493L67.5924 32.8208H64.5549L64.9888 31.6259H68.026L69.5546 27.415H70.7752Z" fill="white"/>
<path d="M28.1841 28.8536C5.91504 32.3071 13.6529 21.9258 24.7428 12.3263C35.8318 2.72595 41.4188 0 41.4188 0C41.4188 0 8.33141 30 28.1841 28.8536Z" fill="white"/>
<path d="M24.4742 24.1473C46.7426 20.6934 39.0052 31.0756 27.9164 40.6741C16.8269 50.2749 11.2397 53 11.2397 53C11.2397 53 44.3269 22.9999 24.4742 24.1473Z" fill="white"/>
<path d="M17.252 13.2075C17.252 17.9842 13.3904 21.8571 8.62649 21.8571C3.86229 21.8571 0 17.9842 0 13.2075C0 8.43088 3.86229 4.55933 8.62649 4.55933C13.3904 4.55933 17.252 8.43082 17.252 13.2075Z" fill="white"/>
<path d="M0.513184 13.2077C0.513184 17.6933 4.15283 21.3429 8.62653 21.3429C13.1002 21.3429 16.7391 17.6933 16.7391 13.2077C16.7391 8.7229 13.1002 5.07324 8.62653 5.07324C4.15288 5.07324 0.513184 8.7229 0.513184 13.2077Z" fill="white"/>
<path d="M4.31299 13.2074C4.31299 15.5926 6.24792 17.5326 8.62667 17.5326C11.0047 17.5326 12.9401 15.5926 12.9401 13.2074C12.9401 10.8241 11.0047 8.88354 8.62667 8.88354C6.24792 8.88354 4.31299 10.8241 4.31299 13.2074Z" fill="white"/>
<path d="M12.4272 13.2076C12.4272 15.3126 10.726 17.0177 8.62671 17.0177C6.52765 17.0177 4.82617 15.3126 4.82617 13.2076C4.82617 11.104 6.52765 9.39844 8.62671 9.39844C10.726 9.39844 12.4272 11.104 12.4272 13.2076Z" fill="white"/>
<path d="M217.591 23.6653C217.487 23.9554 217.114 24.9926 216.695 26.1549C216.616 26.374 216.536 26.5959 216.456 26.8201C216.369 27.0618 216.283 27.3027 216.197 27.5404C215.86 28.4772 215.548 29.3426 215.378 29.8153H249.788C249.884 29.5424 250.22 28.6128 250.605 27.5404C250.69 27.3045 250.777 27.0645 250.864 26.8201C250.943 26.5982 251.024 26.3754 251.103 26.1549C251.469 25.1358 251.817 24.1737 252 23.6653H217.591Z" fill="white"/>
<path d="M149.862 22.6141C149.355 23.6092 148.687 24.8542 147.843 26.1549C147.699 26.3768 147.561 26.5959 147.407 26.8201C147.241 27.0605 147.061 27.3 146.882 27.5404C145.072 29.9753 142.579 32.3912 139.131 33.6272L137.827 34.094C137.827 34.094 138.815 31.247 140.1 27.5404C140.182 27.3036 140.265 27.0636 140.35 26.8201C140.425 26.6013 140.502 26.379 140.58 26.1549C142.793 19.7784 145.584 11.7322 145.921 10.7642H139.324C139.19 11.1537 136.63 18.565 134.009 26.1549C133.932 26.3768 133.856 26.5982 133.779 26.8201C133.696 27.0609 133.612 27.3 133.529 27.5404C131.015 34.8216 128.578 41.8818 128.304 42.669C130.264 42.636 133.738 42.4037 137.991 40.7737C146.773 37.4345 151.447 31.4472 153.862 27.5404C154.017 27.2923 154.163 27.0501 154.298 26.8201C154.434 26.5896 154.563 26.3668 154.684 26.1549C154.808 25.9352 154.924 25.7287 155.031 25.5362C154.169 25.0495 150.727 23.1031 149.862 22.6141Z" fill="white"/>
<path d="M130.032 26.8199C130.135 26.5957 130.23 26.3766 130.328 26.1547C131.631 23.215 132.556 20.5718 133.185 18.7587C133.185 18.7587 135.445 12.1536 135.933 10.7251H129.334C129.072 11.487 126.137 20.057 126.137 20.057C125.508 21.8715 124.85 23.7455 123.664 26.1547C123.555 26.3738 123.448 26.5917 123.331 26.8199C123.212 27.0513 123.077 27.2993 122.949 27.5402C122.631 28.1381 122.292 28.7567 121.897 29.4306C119.224 33.9912 116.769 36.019 115.015 37.3322C115.532 38.104 117.799 41.4866 118.397 42.3823C123.641 38.5618 127.253 32.7282 129.697 27.5402C129.811 27.2993 129.923 27.0585 130.032 26.8199Z" fill="white"/>
<path d="M160.066 10.7175C159.844 11.3651 158.361 15.6388 157.915 16.9254H182.199L181.68 17.8952C180.052 20.9501 177.936 23.7077 175.365 26.1548C175.13 26.3775 174.898 26.6026 174.655 26.82C174.385 27.0635 174.106 27.3035 173.825 27.5403C168.776 31.8086 162.161 34.9941 153.99 36.9021C154.139 37.7593 154.814 41.6512 154.994 42.682C167.031 40.3786 175.396 34.0718 179.378 30.5021C180.405 29.5866 181.383 28.5937 182.323 27.5403C182.535 27.3022 182.748 27.0645 182.955 26.82C183.139 26.6053 183.312 26.3753 183.492 26.1548C186.996 21.8639 189.862 16.6303 192.047 10.7175H160.066Z" fill="white"/>
<path d="M209.654 18.4385L209.365 18.6576C205.155 21.8653 201.492 24.2563 197.771 26.1548C197.324 26.3821 196.878 26.6067 196.429 26.8201C195.906 27.0699 195.378 27.3076 194.847 27.5404C191.894 28.8347 188.809 29.8785 185.301 30.8077L184.932 30.9053L185.961 36.5935L186.728 36.3707C188.192 35.9441 190.64 35.2319 194.76 33.5155C194.76 33.5155 194.971 33.4265 195.216 33.3248C194.686 34.8528 191.959 42.72 191.959 42.72H198.843C198.843 42.72 203.377 29.6494 203.476 29.3607C203.505 29.3448 203.543 29.3227 203.543 29.3227C204.477 28.7989 205.486 28.1843 206.501 27.5404C206.874 27.3036 207.248 27.0627 207.619 26.8201C207.959 26.5982 208.296 26.3767 208.628 26.1548C210.623 24.8262 212.438 23.5464 213.487 22.8057L213.904 22.5102L209.654 18.4385Z" fill="white"/>
<path d="M99.4185 16.7264C99.4185 16.7264 101.058 11.9972 101.504 10.7129H94.7427C94.4939 11.4323 92.6558 16.7332 92.6558 16.7332C92.6558 16.7332 84.597 16.7414 83.8076 16.7423C83.5786 17.3759 82.0824 21.5244 81.6182 22.8123H90.5487L89.3894 26.1547L89.1591 26.8199L88.9094 27.5402L86.1173 35.5937C84.9434 38.979 85.4561 40.1575 85.9447 40.7491C87.4454 42.5441 90.8281 42.6358 91.4902 42.6358H109.003C109.233 42.0027 110.747 37.8324 111.216 36.5422H96.0349C94.4767 36.5422 93.6988 36.4817 93.3022 35.9308C92.9362 35.4242 93.1408 34.8354 93.3567 34.2122L95.6694 27.5402L95.9191 26.8199L96.1494 26.1547L97.3086 22.8123H109.234L108.327 23.8897C107.615 24.7343 106.72 25.4885 105.758 26.1547C105.422 26.3869 105.079 26.6093 104.731 26.8199C104.308 27.077 103.879 27.3156 103.454 27.5402C101.987 28.3144 100.563 28.895 99.5379 29.2701C99.9882 30.1658 101.331 32.8389 101.727 33.6266C106.02 31.9147 109.279 29.7984 111.804 27.5402C112.071 27.3012 112.337 27.0626 112.588 26.8199C112.817 26.6003 113.021 26.3766 113.236 26.1547C116.342 22.9525 118.136 19.5753 119.301 16.7048C117.519 16.7066 99.4185 16.7264 99.4185 16.7264Z" fill="white"/>
</g>
<defs>
<clipPath id="clip0_1_1290">
<rect width="252" height="53" fill="white"/>
</clipPath>
</defs>
</svg>
