<svg width="427" height="544" viewBox="0 0 427 544" fill="none" xmlns="http://www.w3.org/2000/svg">
<path d="M290.56 296.157C60.9794 331.599 140.752 225.046 255.078 126.517C369.399 27.9791 427 -0.00012207 427 -0.00012207C427 -0.00012207 85.8898 307.922 290.56 296.157Z" fill="#0068B7" fill-opacity="0.05"/>
<path d="M252.308 247.847C481.887 212.397 402.118 318.962 287.803 417.483C173.473 516.025 115.873 544 115.873 544C115.873 544 456.981 236.071 252.308 247.847Z" fill="#0068B7" fill-opacity="0.05"/>
<path d="M177.858 135.559C177.858 184.59 138.045 224.341 88.9319 224.341C39.815 224.341 0 184.59 0 135.559C0 86.5352 39.815 46.7949 88.9319 46.7949C138.045 46.7949 177.858 86.5352 177.858 135.559Z" fill="#0068B7" fill-opacity="0.05"/>
</svg>
